/* XPM */
static char *_013dc8645eb41e7b0715df28df69978pQnD0ow4cGLci5rW[] = {
/* columns rows colors chars-per-pixel */
"64 64 245 2 ",
"   c #020201",
".  c #0B0101",
"X  c #010902",
"o  c #0C0B03",
"O  c #02030A",
"+  c #0A0209",
"@  c #030A0C",
"#  c #0B0B0B",
"$  c #130001",
"%  c #1B0100",
"&  c #120903",
"*  c #1C0C04",
"=  c #14030C",
"-  c #120B0B",
";  c #1A080C",
":  c #081508",
">  c #1A120D",
",  c #171305",
"<  c #020411",
"1  c #050B14",
"2  c #0A0B16",
"3  c #170A14",
"4  c #0B1214",
"5  c #0A1218",
"6  c #131312",
"7  c #1A1B1B",
"8  c #191719",
"9  c #230101",
"0  c #2B0101",
"q  c #230A02",
"w  c #2B0A04",
"e  c #2D0D09",
"r  c #24090B",
"t  c #330201",
"y  c #3C0201",
"u  c #330A03",
"i  c #350B09",
"p  c #3A0A07",
"a  c #271508",
"s  c #34130D",
"d  c #351508",
"f  c #240B14",
"g  c #340814",
"h  c #261817",
"j  c #361919",
"k  c #25241F",
"l  c #36281C",
"z  c #0F1126",
"x  c #171721",
"c  c #1D162F",
"v  c #271B27",
"b  c #3D1C24",
"n  c #2A162E",
"m  c #1A2228",
"M  c #1B2C34",
"N  c #242424",
"B  c #2A2A2B",
"V  c #292528",
"C  c #362626",
"Z  c #39372E",
"A  c #2C2D33",
"S  c #292937",
"D  c #372A36",
"F  c #2A3938",
"G  c #333433",
"H  c #33343A",
"J  c #393937",
"K  c #17281E",
"L  c #440201",
"P  c #430B04",
"I  c #4A0806",
"U  c #530300",
"Y  c #580909",
"T  c #431204",
"R  c #49130A",
"E  c #58140B",
"W  c #4B0A16",
"Q  c #560D17",
"!  c #471915",
"~  c #5D1314",
"^  c #5A161A",
"/  c #531A1A",
"(  c #581816",
")  c #650806",
"_  c #750A09",
"`  c #62130B",
"'  c #6C130C",
"]  c #671A0C",
"[  c #75120C",
"{  c #741C0F",
"}  c #670D14",
"|  c #770E13",
" . c #651414",
".. c #6C1313",
"X. c #641A13",
"o. c #6B1B14",
"O. c #6E1C1A",
"+. c #66171B",
"@. c #761B15",
"#. c #74151B",
"$. c #741B1B",
"%. c #7A1C1A",
"&. c #791515",
"*. c #482319",
"=. c #5B231B",
"-. c #572719",
";. c #62241C",
":. c #6A221B",
">. c #67271A",
",. c #74241C",
"<. c #7A2518",
"1. c #6F381C",
"2. c #461A26",
"3. c #531E29",
"4. c #6E1F21",
"5. c #661B22",
"6. c #741B22",
"7. c #472627",
"8. c #5C2C24",
"9. c #582724",
"0. c #4D2E34",
"q. c #552936",
"w. c #493936",
"e. c #5B3538",
"r. c #50352D",
"t. c #652424",
"y. c #6C2324",
"u. c #622A23",
"i. c #6A2C2B",
"p. c #682A28",
"a. c #752325",
"s. c #752B24",
"d. c #7C2C25",
"f. c #7B242B",
"g. c #732B2B",
"h. c #792727",
"j. c #67342B",
"k. c #7C3527",
"l. c #7D2D32",
"z. c #752F34",
"x. c #683A36",
"c. c #773735",
"v. c #31433E",
"b. c #2D443E",
"n. c #4A443E",
"m. c #714333",
"M. c #3A3944",
"N. c #2C2E43",
"B. c #4D3749",
"V. c #6C3D47",
"C. c #3B4648",
"Z. c #464748",
"A. c #444755",
"S. c #485654",
"D. c #55595A",
"F. c #584A4A",
"G. c #774748",
"H. c #6A5552",
"J. c #564A66",
"K. c #555765",
"L. c #4E4061",
"P. c #765363",
"I. c #5C6569",
"U. c #566272",
"Y. c #64676A",
"T. c #686B75",
"R. c #6B7378",
"E. c #737679",
"W. c #786D71",
"Q. c #536150",
"!. c #841C1A",
"~. c #841A19",
"^. c #901716",
"/. c #84241C",
"(. c #862917",
"). c #942C1D",
"_. c #942518",
"`. c #863219",
"'. c #95311D",
"]. c #82250E",
"[. c #881C25",
"{. c #921C23",
"}. c #832424",
"|. c #8A2323",
" X c #852A23",
".X c #8C2C24",
"XX c #852C2C",
"oX c #8A272A",
"OX c #952C23",
"+X c #9C2C24",
"@X c #952729",
"#X c #8D3423",
"$X c #88352A",
"%X c #92342C",
"&X c #9A3B2C",
"*X c #963626",
"=X c #852C33",
"-X c #982C33",
";X c #843533",
":X c #8C3433",
">X c #843B3B",
",X c #893938",
"<X c #933434",
"1X c #9B3433",
"2X c #973837",
"3X c #A52A28",
"4X c #A73728",
"5X c #A7373A",
"6X c #AD2F36",
"7X c #874238",
"8X c #96433B",
"9X c #90432F",
"0X c #A7453D",
"qX c #BA473D",
"wX c #C94B3F",
"eX c #8D3B42",
"rX c #983A43",
"tX c #A63A43",
"yX c #B83C45",
"uX c #874744",
"iX c #964444",
"pX c #96544E",
"aX c #A2474A",
"sX c #AD4E53",
"dX c #B84C53",
"fX c #B85457",
"gX c #B0524D",
"hX c #BD5860",
"jX c #9E6166",
"kX c #BD6261",
"lX c #81536D",
"zX c #C7504F",
"xX c #DD5E65",
"cX c #C8646C",
"vX c #696C82",
"bX c #77778E",
"nX c #747D8D",
"mX c #7D8997",
"MX c #7B8181",
"NX c #858A9E",
"BX c #8A95A4",
"VX c #8F8DA8",
"CX c #97AAB2",
"ZX c #A3A8BB",
"AX c #A9B5C8",
/* pixels */
"                  #     o       O           .   .   O @ x O O < O                               + + + O       . % T | _ ) ] ] Y ",
"                        o           O               + O S 5 1 O                                 + + O O O     . $ t | | ) Y L y ",
"                                O                 +   2 5 A.z <                                   .             . % ) #.E t 9 9 ",
"                      8 6             O .   .       O O c J.N.< O                               .     O         . % I } y 9 $ $ ",
"                    X H.J                           @ O A.bXJ.2                         O                       . $ W W 9 .     ",
"                    7 MXZ.      O                 O O < K.VXbXS O             O                                   $ W W $ + O O ",
"                O   Z.Y.A     O O               @ O O O vXvXVXJ.O           o O         o O                     . $ Q Q %   O O ",
"                  O Y.K.B   O           . .     X X @ M U.U.bXT.O           O o         o                     . . % Q Q %   X   ",
"              O   7 R.Y.7             . . .       X : R.mXBXVXbX8         o O   o X       O                 . . $ 0 Q  .0 . .   ",
"                  G E.I.N   O O #   . . $ $ = . o b.b.CXAXAXAXNXV O       O O o +       o                   . . $ t } } u $ .   ",
"                O v.E.Y.H O O     . $ % 9 w ! j Z Y.C.BXAXmXBXVXH #         o # o     O o O                   $ $ u .. .p $ . o ",
"                O Z.T.T.K.@ O 4   $ s p R 5.x.8.r.H.F I.mXmXNXZXH     O   O   # # O O o O           O       . . $ ! +...T % . . ",
"              O O S.Y.T.R.F m M.h 9.m.t.4.a.,Xp.j.H.n.v.R.BXNXBXH             # o + O             O   O         . s  .Q p $   . ",
"                4 I.T.T.E.I.C.D.r.x.G.a.XX[.<X;X8.e.r.B N.A.N.A.Z.-       O O #   O                       O       ; I L q .   X ",
"                4 S.I.I.R.Y.F F.e.i.g.| -X{.5XsX>X9.r.Z M.S N.J.A.8 O     # # #           6 -       O             . 0 t $   O X ",
"                  A C.Y.T.K.5 Z.x.O.+.) -X^.6XzX,XE w l 7.n D N.B.>       # @           # k 8           O X         % %     @ O ",
"      o   .   -   8 K.R.MXZ.7 l E @.,.' |.6X6XzX|.O.u.*.! 2.b 2.lXB.3     6 X   . . .   > Z ,         O               .     O O ",
"O     .   .     O O A Z.G k h j U .X,.E  X|.xX6X&.y.j.x.G.e.V.b q.b f + - X X   . .   o C n.l X                     O           ",
"          6 .     O v H V w.w.g } :XO.s.d.kXzX-X6.i.V.b = b + 3 f = 3 8 -   X     .   7 w.n.n.  #                               ",
"  O       k #   O O N A.D w.0.0 +.~ p.8.uXpXY I t.g $ = n Y.< < + = + V $ &     . + 6 F n.J k   7 o o                   O     O ",
". + .     N 4   < O 5 Z.D h j q.V.7.l l a q 9 0 P.P.n z J.c 5 < < 3   h = $     - 7 b.v.F k o X 7 o   .                       O ",
"  .     o G m 7 O O 1 S D b 2.0.r 6 D.Q.X , . & 2 B.L.L.J.< O 1       ; ! $     V G C.b.N #   > > .   .                         ",
"  .   . # G G A 1 1 1 2 h h b f = z R.K   X . . < < c c S B.X X X X & j m.9 q 7 Z C.C.b.B     h > .             O         . .   ",
"        o B B B H 1 O < O   Z.W.B.bXC.X X   . O < 1 N.c < 3 7 X : > , x.jX/ l Z.Z S.b.b.H o   8 f & . .                       + ",
"        . h D V S x O O     : o T.vXc O   - .   O O 5 + f b l w.v.& q j.iXz.G.w.l Z.C.S.B O   - h = .   .     X             . . ",
"O         ; v V D x 1 @ X   X : J.N.S 4 -     # 4 K B w.V.c.c.j.a & s i.=X5.e.n.v.Z.F b.8   . . C $ . $ .   #                   ",
"X       .   ; v A v +   o o X v.A O 5 4 N G J B B V w 9.4.,.s.>.$ 9 9.g.=Xh.x.F.C B 1 4 + . .   - C > . . &                     ",
"          .   8 B v O     & o d 2.0.D.F.3 > + . & % 0 5.%.d.s.E % d p.4.=X,Xr.n.o       . .       > V > .   . .                 ",
"  X           @ x V 3 j 7.m.pXm.iXc.y r = 3 # # o $ E :. X$X-.w 9 ! y.+.[.c.s -         + .       . > h ; . . . .               ",
"  O         X     v j F.G.G.iX) !.5X~ 9 f + #   a u ,.[ @.( i $ 9 / 5.} #.y.q   X   X   . .   X   - . . V h $ . . . .           ",
"          X X     # . 0 p.d.gX6X3XzX9X9 + @ 4 : . T /._./.} w % i 5.+.6.$.p.a X     O   . .   X     . . . j C . % . .     X X   ",
"+ . .   X   X X . $ 9 t ;X@.+XqXwXqXd.u $ 7   , 9 :.!.5X|.Y 9 % / t.E $.#.>.h X X   .   . . X     .     . $ f 0.; % .           ",
"    .       X * 5.6.4.U @.&X[ 0XfX!.$.^ = h * u E %.!.OX` y 9 *.p.] E o.<.>Xe .   .   .   .     . .           $ b 0.    &     . ",
"    . .     X 0 =X-X=X) _ ).` <.[ ' =X4.% a i ! .._ ~.1XY y u p 1.$Xd.:.} ;X7.. .   .           .       X     $ 9 7.j .       . ",
"    . .     X % +.oXd. .) %X/.<._ !.oXQ $ , s ^ sXtX_.|.U =.m.s ' ~.(.}.| XXr.. .           X           X     $ . r 0.$ .   .   ",
"      .       % W 6.+.:.)  X*X<.!.1X1XY 9 e p L } @X{.&.I >.j.u.U _ [ }.[.f.7.              X           X   . $ . . 7.j . . .   ",
"      .       . t ^ ! u.` $.%X/.OX5X<XY L I I L U U | _ T j.;.d.[ !.[ &.@X#.s .           X X                   $ = 9 7.$ .     ",
"O O O           % 0 q *.s.%.2X8X5X&X<.Y } } Q W ( I oXY t m.>X}.&.&X.X@.oX+.w .                 O               . $ % 0.$ . .   ",
"    .           . % . e >X$.}.%X1X<.$.h.tX[.5.P 0 T >XI % -.;X}.@.#X7X,.}.+.w     . .                           . % w 0.% $ X   ",
"O O   O   O O   . o   % m.$.@./.%X{ ,.XX-X| g.j.p.u.R 0 T ( $.%X:X<.k.X.$.+.s     .   .   .     O X     .       $ $ r 2.% .   X ",
"O   O   O         o   , t.$....X%X%.[ 8Xd.L P p.z.i.d 9 :.:X:.E ] ] E Y Y y.s     . . . . . .                   . . ! 2.% .     ",
"  O   O   O O       X a p.$...@.@.@.Y :Xo.y 0 0 +./ % 9 f.0X9Xm.{ <.` Y ) l.j                                 . . . q.g $     X ",
"        O           X a p.@...) ) ,.Y ,.Y E R t p./ $ d XXOX$X`.&X1X`.@.| l.s               X                 . . r 0.% $ .   X ",
"          O   O       a y.a.h.' o.a.;Xk.;X7Xp.p 8.s $ *.,X/.`.#X).+X.X|.~.a.e             X   X               . $ 7.7.$ .     X ",
".     X O O       . . s l.oX:X:.h.~ c.X.8XgXuX8.*.% 9 x.8X].'.4X+X{.|.%XoXf.w X                   O O X       $ g e.% . $       ",
".           O   . . . s ,XoXk.o.XXE k.y Y ,.k.c.l % R >X7X]._.4X4XOX(.<X-Xl.q                     .         . $ 0.e.. o       X ",
". .   X         $ . $ p rXoX,.o.:XoX;XI 0 t U E % $ y.<X.X*X'.4XOX<.,.d.}.g.q               .   .         X h g ! g $ $       X ",
".       O   O . + . . p aX-XXX;X<X<X~ R 0 T t.t.9 0 rX3X&.*X'.`.*X%X$Xk.#.5.*         . . . . . $ $ . . . h 7.x.9 = $ .   X   X ",
"            . . + . $ 0 rX{.&./.}.g.u 8.;.R t.R $ -.5X6X+X).`.<.&X#X<.<X..( s o o   +     +   . 9 0 0 0 3.G.z.W 9 % $ .     O X ",
"            . = +   . 9 rX-X/..X}. .E R =.;.u.0 0 p.5X6X).'.'.#XOX%X_.3X5X;X! w j r r = % % e 9 L Y a.g.c.c.! 0 $ $ .         O ",
"        O   . + O     % ;X5X/./.@.%.fXaXc.z.-.0 P :X4X+X+X+X`.'.'.4X_.^.6X@X..h.#.f.6.f.[.} rX} ,XrXpXeXj.l %                 + ",
"            .     O   $ y.2X(.' XXU %.sXpXc.% w X.:X%XOX4X_.].`.].9X).^.6X3X| <X~.-X[.[.yX{.dX2XsXeXz./ u *       X X     . . = ",
"                O     $ ^ aX%X] P T t t T -.* 9 s.|.$X&X+X).'.`.9X1.>.{ [ |. .;XXX<XoXoXdX1X2X,Xt.W 0 % $ .     X X X     O . . ",
"+   .       O         % p iX:X] -.d 0 9 m.*.* d ,X|..X&X).).'.'.1.1.1.9X}.:XL 0 L W W I z.E 0 u % + $ . . .                     ",
"O O   O     O O X X   $ t >X%X:.p d R -.m.u 9 / :X1X@X+X+X'.4X*X0X;Xd.:X-XeXt % 9 % $ . $ .   X           . . $ .           O X ",
"            X   O     % 0 iX0X(.I t L p.9.y 0 g.XXtX<X/.3X4X_.'.9X<.XX/.rX>X0 $ .     @     : X X X X     . . . . .       X   X ",
"  O         X       $ % 0 O.dXdXdX-X) ,X/ 9 Q l.( ^ >.k.*X).(.(.(.0X5X/.:Xl.w . .     O   O O O                                 ",
"O                   $ % 9 g.2X_ -XtXtX=Xi 9 9.^ % $ % T  X*Xk.$X].'.9X*XXXi.q       O   . O   O                               . ",
"            X   + . $ % % Q <XoX) ~.rX/ . , r.%   X   % =.d.<.(.`.`.`.9X$Xj.*   X       . = . .               X           . $ . ",
"O       . .     O   = $ $ ! iXhXtX-X>X! * V b   X X   & p ;XrX|.#X`.<.9X1.u.& X         $ $ . . .                       . . . . ",
"        . .   X   . $ . . C c.l.cX,X! % $ h     X   . % % i.sX@X1X&X(.<X<Xg.$                                                   ",
"      . . .         + .   , i y O.( q & $ h   4 :   + % $ i f.#.o.s.X.$.=Xp.$ o       X     X X                                 ",
"      . $ .   X O     X X   . 0 % $ & & .       + O   X   X s p % % % 9 g g       O O         X                                 ",
"    . . $ . X     O O   X X . $ % o o   .   1 O + = @ X X X . .     # . = = < O O O   O   .   X                                 "
};
