/* XPM */
static char *_ef31b8e6ed5498dc1038314d2213f040mG2beXzBFlcDxHU[] = {
/* columns rows colors chars-per-pixel */
"64 64 214 2 ",
"   c #050404",
".  c #0B0305",
"X  c #060807",
"o  c #0C0608",
"O  c #0B0B0B",
"+  c #070808",
"@  c #130105",
"#  c #14050A",
"$  c #1B050C",
"%  c #140A0D",
"&  c #1A0A0E",
"*  c #0E100D",
"=  c #130E10",
"-  c #1B0D12",
";  c #0F1110",
":  c #131313",
">  c #1B1315",
",  c #1B1618",
"<  c #1B1B1B",
"1  c #171817",
"2  c #210E13",
"3  c #231116",
"4  c #24151A",
"5  c #231C1E",
"6  c #291A1D",
"7  c #2A151C",
"8  c #33161E",
"9  c #231F20",
"0  c #2B1D21",
"q  c #321C22",
"w  c #3B1A23",
"e  c #232323",
"r  c #2A2425",
"t  c #292826",
"y  c #2C2628",
"u  c #272928",
"i  c #2C2C2C",
"p  c #342126",
"a  c #342529",
"s  c #3C242B",
"d  c #332B2D",
"f  c #3B292E",
"g  c #342E30",
"h  c #3C2D32",
"j  c #343434",
"k  c #3B3336",
"l  c #3D3638",
"z  c #3C3B3B",
"x  c #363835",
"c  c #431F29",
"v  c #42222B",
"b  c #46272F",
"n  c #432D33",
"m  c #4E2E39",
"M  c #4B2C35",
"N  c #423336",
"B  c #493137",
"V  c #44353A",
"C  c #4B3339",
"Z  c #443B3E",
"A  c #493A3E",
"S  c #57353E",
"D  c #522A35",
"F  c #433F40",
"G  c #4B3E42",
"H  c #513D42",
"J  c #573A43",
"K  c #683E4A",
"L  c #3F4140",
"P  c #444343",
"I  c #4B4245",
"U  c #4C4B4B",
"Y  c #494748",
"T  c #534246",
"R  c #54454A",
"E  c #5D464B",
"W  c #534B4D",
"Q  c #5C4A4E",
"!  c #5B4D51",
"~  c #514F50",
"^  c #545354",
"/  c #5A5254",
"(  c #5D5658",
")  c #5B5B5B",
"_  c #5A5957",
"`  c #60484E",
"'  c #654B52",
"]  c #625256",
"[  c #62565A",
"{  c #635B5D",
"}  c #6D595D",
"|  c #715059",
" . c #655E61",
".. c #6A5D61",
"X. c #765B62",
"o. c #636363",
"O. c #6B6265",
"+. c #6E6669",
"@. c #6C6B6B",
"#. c #736266",
"$. c #726669",
"%. c #736B6E",
"&. c #7B6A6E",
"*. c #7C656B",
"=. c #756E70",
"-. c #7B6C71",
";. c #6F7170",
":. c #747373",
">. c #7B7376",
",. c #7D7678",
"<. c #7C7C7C",
"1. c #777978",
"2. c #876C73",
"3. c #847176",
"4. c #84757A",
"5. c #8A757A",
"6. c #837B7E",
"7. c #8A797E",
"8. c #897076",
"9. c #92767E",
"0. c #86626C",
"q. c #7E807F",
"w. c #847F80",
"e. c #8B7C81",
"r. c #947E84",
"t. c #848383",
"y. c #8C8386",
"u. c #878988",
"i. c #8C8B8C",
"p. c #8A8788",
"a. c #928185",
"s. c #94858A",
"d. c #99858B",
"f. c #938A8D",
"g. c #998A8E",
"h. c #958E90",
"j. c #9C8E92",
"k. c #949393",
"l. c #9C9396",
"z. c #9C9799",
"x. c #9C9B9C",
"c. c #A28D93",
"v. c #AA8B93",
"b. c #A29296",
"n. c #A39599",
"m. c #AA959A",
"M. c #A39B9D",
"N. c #AA999D",
"B. c #9EA09F",
"V. c #A49EA0",
"C. c #AA9DA2",
"Z. c #B39DA3",
"A. c #BA9CA4",
"S. c #A4A3A3",
"D. c #ABA3A5",
"F. c #ACA6A8",
"G. c #ACABAC",
"H. c #A7A9A8",
"J. c #B2A2A5",
"K. c #B3A5A9",
"L. c #B3ABAE",
"P. c #BCAAAF",
"I. c #B9A5AB",
"U. c #B1B1AF",
"Y. c #B4AEB0",
"T. c #BAAEB2",
"R. c #B4B3B4",
"E. c #BAB3B5",
"W. c #BCB6B8",
"Q. c #BCBBBB",
"!. c #B6B8B7",
"~. c #C1ADB2",
"^. c #C2B1B6",
"/. c #C2B5B9",
"(. c #C2BCBE",
"). c #CAB5BA",
"_. c #D2B2BA",
"`. c #BEBEC0",
"'. c #C3BFC0",
"]. c #CBBEC2",
"[. c #D5BBC2",
"{. c #C4C3C3",
"}. c #CAC4C6",
"|. c #CDC6C8",
" X c #CCCBCB",
".X c #CAC9C7",
"XX c #D3C1C6",
"oX c #D2C6CA",
"OX c #D3CBCE",
"+X c #D9CBCF",
"@X c #D9C7CD",
"#X c #D1D1CF",
"$X c #D4CED0",
"%X c #DBCCD1",
"&X c #CFD1D0",
"*X c #D3D3D3",
"=X c #DAD3D5",
"-X c #DCD7D8",
";X c #DCDBDB",
":X c #E5C5CF",
">X c #E2D3D7",
",X c #E1DCDE",
"<X c #E1D6DA",
"1X c #E2CFD5",
"2X c #E4DEE0",
"3X c #E9DFE3",
"4X c #E4E4E4",
"5X c #E9E5E6",
"6X c #EBE7E8",
"7X c #ECEBEB",
"8X c #F3ECEE",
"9X c #F4E5E9",
"0X c #F4F4F4",
"qX c #F8F7F7",
/* pixels */
"          + O O = 1 9 u j F U U Y ^ ^ @.<.u.x.B.H.R.`.*X-X&X!.q.) Y x ~ i.`.&X*X{.z.<.<.1.o.o.^ P z e < : ; ; O + X           j ",
"        + O O ; ; 1 e i j U ^ o.;.<.t.i.B.G.R.{.`.R.!.`.R.S.t.P u 1 ; 9 P o.u.R. X XR.z.p.w.t.<.;.^ j i e e < ; + X           j ",
"        + O ; ; ; : 1 u j _ ;.;.1.q.i.z.x.x.x.i.:.@.@.o.@.) k < ; O 1 u ^ 1.q.@.k.{.}.(.l.N.Q.(.H.i.o._ ^ L j 9 ; + X X       j ",
"        O O ; : : 9 i j j ^ 1.z.B.x.k.u.q.<.:.o.~ z u 1 O O       + : i ^ i.R.{.Q.L.}.L.T.M.D.{.S.k.p.t.;.^ z u 1 O X         j ",
"        O O ; : 1 j Y U ^ o.<.<.%.^ l e < : ; O +               . # . 5 r U q.V..X*X{.(.oXW.E.z.H.x.B.x.t.+.U x < ; O         j ",
"        O : : 1 e z ~ ) @.+. . .^ P e : ; ; : O                 # - . # % 1 j o.h.R.|./.-XXX(.N.k.G.R.G.t.;._ j < O           j ",
"        O ; 1 9 i L ) { J E Q ] ( z e < < 1 < ;                 & @ . - + O 1 i ^ w.g.P.oX}.^.C.z.S.T.l.<.;._ i 1 ; +         j ",
"        : 1 < d g P R q G J E ..~ L j Y u < < : + +             4 @ . 3 . + % < j W 5.c.+X(.].D.G.k.M.r.k.y.o.F e 1 O +       j ",
"  + + : , < u u l G c M n f G ^ o.^ ) L j i e < O +           . 6 $ $ & . . # > , A ` 9.Z.].J.C.D.F.e.e.,.%. .F g 1 O O +     x ",
"+ + O 1 9 u l a V m D b q a z ^ o.o.) ~ L z z e : +         . % - # 8 @ $ 6 3 3 4 6 J ' 7.b.D.D.z.C.3.g.e.X.^ F u 1 ; + +     x ",
"+ O : < i l G h V w b v 0 y k U P j L Y ) U j u < < 9 1 1 = , a = % s $ q 3 $ 2 8 8 S ! [ z.S.V.e.e.X.4.=. .~ z r < ; O +     l ",
"+ O 1 e j U R J G n b b q 0 g x j l U @.@.^ L L _ ^ k z z F 4.%.o.V n q w B 4 0 w c s W ^ :.h.z.j.] $.,.:.%.o.^ x i < : O + + x ",
"+ ; , i L ~ ^ { /  .G G m w l g k Y ;.w.;.;._ 1.k.) ^ o.o.L.(.d.F./ A G N X.R J w s 0 P Y U <.w.d.| 3.-.-.,.{ ~ L j e < 1 ; O z ",
"O ; < g L U ~ ^ ( ^ ! J J m F g k z +.@.^ ) @.t.u.) ) <.G.OX%XD.z.^ Y / / &.r.7.J B r g ^ Y o.>.5.r.s.l.h.w.<.@.o.U z i 9 1 ; z ",
"+ : e i L Y ^ o.{ ) ^ F M m H y y a R V h z U o.U P U i.k.{.Q.Y.y._ o.o.%.,.j.b.H C r e ) z P ,.X.m.l.l.U.B.k.k.1.o.~ j u 9 : z ",
"O ; e i z Y ^  .o.o.) k s M s q 0 q V q 9 9 e i i < z L _ @.U :._ U o.@.t.<.z.,.V f 5 1 U i j { } c.l.M.R.H.B.x.u.:.o.Y j e : z ",
"O ; < i z U o.:.q.<.@.k 0 0 c c c c q , : 1 1 < : ; : * 9 9 e ) z ) p.<.q.1.t.G i e : : j u i U O.7.y.l.}.{.Q.G.B.q.o.U j i e L ",
"O : < u z ~ o.<.q.q.{ x g h S K S m 0 > : < 1 : : O +   * O < j z ( z.t.) Y ( u 1 < O ; e e u ~ o.g.M.M. X*X.X!.B.u.@.) F i u U ",
"O : e j P ^ :.q.u.u._ F A ! | X.E A e 1 1 5 < - 6 #     X X : t z o.k.w.L i < O + : O + < < e U o.t.D.S.`.&X XQ.H.k.q.;.^ z i ~ ",
"O 1 e i Y o.t.k.k.k. .! #.X.9.5.{ R e < a h 9 9 f # o O     : e G <.l.i.Y i 1 + + < O + : : < z o.:.x.x.U..X{.Q.U.B.u.:.@.U j ~ ",
"O 1 e j U o.<.t.k.V.,.g.7.8.K.k.,.=.z i k h q p p 6 ; O   . 1 i / n.f.e.F i < O ; z O ; : : < z o.) k.u.S.{.{.Q.H.u.<.@.) Y j U ",
"; 1 u z ~ @.q.z.H.H.L.l.N.Z.G.B.B.i.1.U F F n f g d < = % + < j [ n.M.r.G z 9 ; : z ; : : : < j U _ p.<.B.{.}.`.B.k.q.@.U j u Y ",
"O : e j ~ o.<.k.H.'.$X$X,X%X{.&X`.Q.G.k.;.[ H C k ^ h a 4 , 5 d ~ f.h.%.Z y 9 1 j j : 1 O O : j P ^ t.;.k.`.Q.R.x.u.1.o.L L u Y ",
": < i L ) :.u.H.R.*X4X6X0X8X7X4X*X XR.G.H.l.e...A l G a 6 5 e d ~ =.=.W z i u L ^ i e < O ; 1 j z ) :.o.i.!.Q.R.x.u.@.~ L i e U ",
"< i Y ) <.k.S.`.`.;X7X7X7X7X7X4X-X;X XU.!.Q.'.C.(.L.C.I.M.M.$.' -.+.%...~ ^ @.:.L i j < : 1 1 j z o.@.^ <.G.R.R.B.u.%._ L i u Y ",
"< g L @.k.S.`.{.{.4X7X7X4X;X4X4X;X4X*X X`.W./.C.T.D.b.].].$XL.].Y.K.%XL.G.h.;.( ^ ( L i < : 1 z j o.) ~ :.G.!.`.R.k.q.o.Y L j ~ ",
"1 i L @.i.S.`.G.&X4X7X7X7X7X7X7X4X4X;X XY.z.e...w.z.n.Z.].].'.5X6X,X`.$X'. X X{.{.R.k.1.j u e j i o.L Y @.G.{. X XG.k.q.) U x ^ ",
"< j Y ;.u.B.`.k.`.*X4X7X7X0X0X0X0X7X4X&X XQ.T.M.R.h.V.C.b.L.$X4X5X5X8X0X0X0X0X0X0X4X{.x.L i e j u ^ L L o.G.{.;X-X{.H.u.@.^ z ^ ",
"1 i Y @.t.B.G.B.R.{.{. X4X7X0X0X7X7X2X*X XH.E.'.Q.|.D.}.Q..X-X{.`.G.G.|.4X-X{. X*X X`.t.L i < u e L u z ) H.{.*X;X XR.x.<.o.L o.",
"e j ^ ;.i.H.H.B.B.U.H.u.{.*X;X7X7X&X2X}.}.H.k.|.|.=XS.#X.X(.'.L.x.x.l.n.p.( j e e e i e < 1 1 u 1 9 9 i U x.{.*X;X XH.x.u.;.) o.",
"e L o.1.x.k.x.k.:.t.R.`. X7X4X7X5X&X%Xm.F.M.*.a.b.M.y.K.D.].oXe.F.`.e.*.=.^ L o.w.o.q.( i e 1 e 4 q i j ~ x.`.&X;X{.!.B.u.o.U o.",
"u Y ) <.k.k.k.k.@.o.k.{.;X7X7X4X X`.T.3.V.T.2.A.r.c.n.E.L.@X@Xj.K.'.e.v.r.w.1.q.B.H.B.) l u 9 0 9 h F  .u.G.{.&X;X&X{.G.i.;.U o.",
"e z ) ;.u.u.B.k.) ;.@.D.*X;X7X4X X*XJ.c.I.~.r.:Xv.^.^.XXJ.b.~.b.D.C.e.A.].3X8X7X*X!.x.~ h g l l ..e.s.V.U.U.*X#X{. X!.S.u.o.U @.",
"< i U ) :.i.G.B.o.o.@.<.{.*X4X2X X(.a.8.r.A.2._.0._.c.oXXXm.b.g.K.j.r.Z.`.<X0X8X;X{.x.U k G ~ ..b.,.g.y.+.p.`..X*X#XQ.B.<.o.Y o.",
"1 i Y ^ ;.k.`.!.k.^ o.^ <.R.{.!.(..XD.$.g.~.r.:X0._.Z.@X>XN.9.g.T.D.j.K.`.2X0X8X*X'.f.G G W [ m.j. .( ! I O.R.Q.{.{.H.t.@.^ z o.",
"; 1 i U  .!.*X;X4X-X{.G.H.H.!.!. XQ.$X^.N.@XZ.[.A.9X+X>X9X<Xn.N.j.f.j.n.C.`.8X4X{.M. .V F G w.y.4...R V N ! G.Q.&X.X!.x.<.o.U o.",
": 1 i Y @.`.*X7X0X0X8X].6X5X{.}.`.(.`.-X-X-X^.P.:X3X9X2X7X=XU.H.V.B.z.>.w.K.].'.G. .F n V [ -.e.e.^ R a n I F.`.&X*XQ.k.q.o.U ) ",
"; ; e z ) R.*X4X0X6X].@X8X-XOX;X X X.Xk.D.(. X|.*X5X,X4X;XF.z.z.Y.'.!.C.C.`. XR...h s n G g.g.-.%.F l a h G z.Q. X X`.U.i.1.^ @.",
"; ; < i F @.h.!.@X^.[.%X%XW.,X*X$X*X|.(.f.y.G.F.{.=X-X-X-XE.l.z.R. X'.F.V.C.C.>.F q q B ] m.s. .R r > > e z i.!..X X{.G.k.q.o.;.",
": < g L z U Y W h F ! %.e.z.W.'.R.-XT.}.>X(.(.+XT.^.oX(.].M.6.V.!.|.C.V.$.e.+.l f w h R b.C.,...G 5 - O e x 1.!.`..X{.U.i.t.o.1.",
"1 e j U o.q.x.R.W./.4...! U ,.D.i..XL.M.oX|.T.XXN.[.].I.Z.&.l.z.F.L.s.3.>.J R g h H -.T.C.].p.<.P < % O 9 j o.H.!.!.R.x.i.q.;.q.",
"< e z Y o.@.;.:.o.f.C.E.'.Y.m.C.E.E.^.L.j.K.C.^.~.[.[.^.^.2.S.S.R.T.^.5.R k P G  .C.W.%X2XOXw.w.z 5 : , < i _ S.U.!.R.B.k.t.:.u.",
"i j U @.<.<.<.o.i i k  .z.Q.I.T.,XW.P./.6.M.M.T.C.>X1XC.C.>.6.h.G.F.Y.+.j g Y >.!.-X6X6X-X`.,.O.g > O o r f ^ G.{.&X&X!.G.k.t.h.",
"j L ) ;.q.t.t.^ i 1 ; < k  .r.C.|.$Xg.b.$.-.E.|.T.@X@Xz.E.D.S.F.U.H.z.P j z 1.!.;X7X0X7X-X`.-.R y = . . 6 d ^ H.{.*X;X X{.H.i.u.",
"L o.1.k.B.x.<.^ r 1 +   1 t ! S.R.{.M.S.%.t.S. X2X;X XG.B.V.x.k.i.<.^ j i ~ B.{.5X0X0X6XOXL.! k , . o   3 f P z.{.&X;X;X.XG.<.<.",
"P o.1.k.B.k.6.^ y > O     : i U i.B.u.B.@.@.U. X4X4X X`.G.u.;._ L Y Y j z <.G.&X8X0X6X%Xl.-.V 0 - % # . & d P p.`.;X4X4X&XG.u.u.",
"z ) t.i.z.s.=.R f 0 %       1 e Z q.;.i.o.@.Q. X;X4X;X&X XR.k.1.^ ^ o.Y ) x.!.4X0X8XK._.' M 0 % 4 % o . % 0 l 1.!.*X4X4X*XG.t.u.",
"L ) p.B.F.V.w.] f 7 - # .   . : < z W @.) { U. X2X0X5X X&X`.H.S.u.;.o.^ <.G.{.4X4X X3...m q # . 2 # - # < k U <.U..X;X;X*X!.h.u.",
"Y o.k.R.`.f.e.K g 3 & # o o . o = : 0 F T Q S.{.;X0X6X;X-X{.!.U.1.o.) :.B.`.{.;XQ.G.! n q % % . 3 q k W k.!.}.*X*X*X&X{.{.R.k.i.",
"z ~ :.i.V.r.-.J a 0 & o > & 3 # % o : - f A M.}.;X0X5X*X-X$XR.R.+.)  .=.H.{.{.{.x.^ a > o . 0 o - p W o.{.;X7X0XqX7X4X;X!.U.i.i.",
"i P ) ;.e.w.-.H f 7 $ % - # # > # o - @ $ s Z :.G.*X;X;X2X%XQ.Y.=.[ } =.G.}.{.{.k.P y = o . o = : r _ q.{.4X7XqXqXqX7X7X{.G.k.i.",
"e j F ) =.r.e.G a 9 4 a l G 0 0 = # - - @ 6 % e z 1.L.Q.C.C.C.C.$.[ !  .F.`.`.{.B.U i >     + O , i _ x. X4X0XqXqXqX0X4X;XH.x.x.",
"< i L o.q.w.w.G Y ! w.!.T.F.f.W f 4 % - o > + + ; e G { h.D.s.b.O...(  .x.Q.`.{.S.U i : + + + ; < x o.U.*X5XqXqXqXqX7X7X4X!.B.x.",
"e z ^ @.t.i.k.) +.C.'.,X3X*X`.>.W a 1 : # =   + O , A R w.D.C.e.-.{ ! [ k.!..X&XR.@.k < + + + ; e P <.`.;X7X0XqX0XqX0X7X4X!.S.B.",
"e z ) :.k.B.F.1.G.*X;X0X0X6X=XY.w._ r 1 O     + : < A ..h.E.L.D.>.] Q / i.`.&X-X{.x.z u ; + + ; i U B. X4X0X0XqXqX0X7X7X;X`.H.B.",
"e L ^ :.k.H.U.u.&X2X4X0XqX8X2X*Xk.i.) u , =   + O < A ( j.E.Y.G.&.! ' / i.`.*X;X XG.P u : O ; e z <.Q. X7X0X0X0XqX0X0X7X4X`.G.S.",
"e z ^ :.k.`.`.B.2X4X7X0X0X0X7X4X&Xu.k.U i < + + . , d W 5.P.L.L.&.` R / y.Q.&X4X*X`.o.j < : 1 u U S.G.;X7X0X0XqXqX0X7X7X4X{.U.x.",
"j ^ :.k.G. X`.`.6X4X0X0X0X0X0X7X;X`.q.<.j < ; +   1 j / d.c.E.I.*.E R ^ <.!.#X4X;X`.u.x e 1 1 i o.i.`.;X7X0X0XqXqX0X0X7X&X`.k.t.",
"j ^ 1.x.`. X`.`.4X4X7X0X0X7X7X4X4X;X`.H.~ i < + O 9 x $.C.b.A.Z.-.T U ~ 1.U. X6X4X XB.U u u u L 1.!.*X7X0X0X0XqXqX0X0X7X}.`.u.q.",
"z ^ u.H.{.{.`.H.,X4X0X0X0X7X4X;X{.{.`.U.^ z e ; ; u z i.T.I.d.8.g.R I Y ;.G..X5X4X&XG.o.j j i ) H. X4X0X0XqX0XqXqX7X;X*Xx.x.1.1.",
"L o.u.H.`.`.B.t.&X;X7X0X0X0X0X7X;X.XG.H.~ P e : 1 i U G.'.OXE.D.i.P P L o.G.&X7X7X;X`.q.U L L q.R.*X7X0X0X0X0X0XqX6X*X{.;.1.) @.",
"j ~ <.u.x.H.i.;.R.&X;X0X0X0X0X0X7X;XU.u.~ x < 1 < x o.!.&X4X#XE.k.U F L ) G.&X7X0X4X XB.^ ^ ^ B.{.;X0XqXqX0XqXqX0X;X&XG.o.1.{ @.",
"i L o.<.t.i.;.o.q.`.&X7X0X0X0X0X0X4X XH.o.j 9 9 u z i.`.-X0X4XQ.x._ F z U H..X4X0X4X&XR.) ) @.H.&X4X0X0X0XqX0X0X0X*X{.k.^ @.^ ;.",
"j U o.<.u.q.o.L ) H. X4X0XqXqX0XqX7X;X{.t.Y j i j ~ H. X4X0X4X`.S.o.L L P S.{.4X0X4X*X`.:.) :.B. X4X0X0XqXqXqX0X7X*X`.<.U ^ ) 1."
};
