/* XPM */
static char *_5df969fccc74a18d8f43656f3a64a9bAl637l7Ed353ucVY[] = {
/* columns rows colors chars-per-pixel */
"64 64 225 2 ",
"   c #000000",
".  c #0B0000",
"X  c #0D0C0C",
"o  c #0B0709",
"O  c #130001",
"+  c #1C0001",
"@  c #150C0D",
"#  c #1A0B0C",
"$  c #12110F",
"%  c #141414",
"&  c #1C1A1A",
"*  c #1B1515",
"=  c #230104",
"-  c #280004",
";  c #270509",
":  c #2C0609",
">  c #2D090D",
",  c #240A0D",
"<  c #32090D",
"1  c #37050A",
"2  c #350E11",
"3  c #2B1316",
"4  c #2A1B1D",
"5  c #231616",
"6  c #3B1216",
"7  c #351619",
"8  c #3C151A",
"9  c #341B1E",
"0  c #3B1A1E",
"q  c #341417",
"w  c #280E11",
"e  c #241E21",
"r  c #2B1D21",
"t  c #351E21",
"y  c #3B1D20",
"u  c #222122",
"i  c #2C2223",
"p  c #2D2B2A",
"a  c #2A2927",
"s  c #352526",
"d  c #3A2325",
"f  c #362A2B",
"g  c #3B292B",
"h  c #3D2629",
"j  c #392F30",
"k  c #333232",
"l  c #3C3333",
"z  c #3E3C3C",
"x  c #530E18",
"c  c #5A0E17",
"v  c #441116",
"b  c #4B1117",
"n  c #44151A",
"m  c #4B151B",
"M  c #43191C",
"N  c #4B1A1E",
"B  c #52141B",
"V  c #5B131C",
"C  c #54151C",
"Z  c #43080F",
"A  c #690E19",
"S  c #64141E",
"D  c #69131D",
"F  c #77111E",
"G  c #421C20",
"H  c #4A1B21",
"J  c #531D22",
"K  c #5C1D24",
"L  c #641C24",
"P  c #6B1C25",
"I  c #6B1F28",
"U  c #671721",
"Y  c #721D26",
"T  c #7B1B26",
"R  c #741F29",
"E  c #7D1E29",
"W  c #761621",
"Q  c #432024",
"!  c #4C2226",
"~  c #4B2529",
"^  c #47292C",
"/  c #522326",
"(  c #5D2026",
")  c #552529",
"_  c #5D2229",
"`  c #5D292E",
"'  c #52292D",
"]  c #5A2D32",
"[  c #443434",
"{  c #433B3B",
"}  c #4A3739",
"|  c #583538",
" . c #4B2E30",
".. c #64232A",
"X. c #6C232B",
"o. c #6A2027",
"O. c #73232C",
"+. c #7C232C",
"@. c #7A282E",
"#. c #642C33",
"$. c #6C2C33",
"%. c #742D34",
"&. c #7B2B33",
"*. c #7C2A35",
"=. c #683339",
"-. c #753239",
";. c #7C333B",
":. c #503F41",
">. c #693D41",
",. c #743D43",
"<. c #464242",
"1. c #584245",
"2. c #5E5858",
"3. c #6B474B",
"4. c #74454A",
"5. c #6B5859",
"6. c #6F5054",
"7. c #8C0F1D",
"8. c #8A1A26",
"9. c #831E29",
"0. c #8C1E2B",
"q. c #851724",
"w. c #961A29",
"e. c #A51D2E",
"r. c #B01E33",
"t. c #B1182D",
"y. c #83232D",
"u. c #8B222E",
"i. c #83282F",
"p. c #94212E",
"a. c #9B212E",
"s. c #842631",
"d. c #8C2531",
"f. c #832A33",
"g. c #8B2B35",
"h. c #8C2E39",
"j. c #952532",
"k. c #9B2533",
"l. c #932A35",
"z. c #9B2A36",
"x. c #952D39",
"c. c #9C2D3A",
"v. c #83333C",
"b. c #8B313B",
"n. c #94313D",
"m. c #9C313D",
"M. c #A3202E",
"N. c #A42534",
"B. c #AC2534",
"V. c #A52937",
"C. c #A42D3A",
"Z. c #AB2C3B",
"A. c #A82837",
"S. c #B42536",
"D. c #B32C3C",
"F. c #BA2C3D",
"G. c #BA2638",
"H. c #AC313E",
"J. c #A4323F",
"K. c #B5323F",
"L. c #BB313E",
"P. c #CA2339",
"I. c #C32A3D",
"U. c #C4243A",
"Y. c #D4253C",
"T. c #DD263E",
"R. c #D2283E",
"E. c #D8283F",
"W. c #C1303F",
"Q. c #E1273F",
"!. c #E52C3E",
"~. c #833C44",
"^. c #8C3B44",
"/. c #953642",
"(. c #9B3541",
"). c #993A45",
"_. c #A43542",
"`. c #A43B47",
"'. c #AC3746",
"]. c #B43342",
"[. c #BC3343",
"{. c #B73945",
"}. c #BA3945",
"|. c #BE3E49",
" X c #C92C40",
".X c #DD2740",
"XX c #DC2A42",
"oX c #D52C43",
"OX c #C33244",
"+X c #CB3346",
"@X c #C43A46",
"#X c #C83D49",
"$X c #D33444",
"%X c #D33C49",
"&X c #DA3947",
"*X c #E32741",
"=X c #E32941",
"-X c #E43543",
";X c #E73643",
":X c #87454C",
">X c #97434B",
",X c #964B53",
"<X c #875359",
"1X c #9B535B",
"2X c #8E4B52",
"3X c #A8434D",
"4X c #A84D57",
"5X c #B14A54",
"6X c #8F5C62",
"7X c #B65B66",
"8X c #8F6164",
"9X c #CE424E",
"0X c #C4434E",
"qX c #D1424D",
"wX c #CC4C54",
"eX c #C64C55",
"rX c #D34652",
"tX c #D54954",
"yX c #CB545D",
"uX c #C1535C",
"iX c #C95962",
"pX c #CE626B",
"aX c #D4666E",
"sX c #D86971",
"dX c #AA8386",
/* pixels */
"                                                                                                                        . . . . ",
"                                                                .   . . . O O + + + = > M M > > < : : : ; = < 2 M M N ) ) ) ` ) ",
"                                                                  O + < ..>X5XiXiXpXpXpXyXyXyXsXsXsXiXiXpXpXaXiXuXeXeXeXyXwXyXeX",
"                                                            O + G #.:X4X3X'.|.[.@XqXL.#X9XqX9XtXrX9X%XqX9XrX9XqXtXrX#X%X$X$X%X$X",
"                                                          O v ^.3X(.m.z.C.Z.[.OXW.L.K.{.{.K.L.5X{.|.#X|.}.].}.K.5X0X@X@XOX#X+XOX",
"                                                      . ; =.4X`.c.a.a.j.V.N.B.D.H.z.i.y.+.+.T y.f.f.s.9.f.y.b.d.u.y.d.m.m.m.m.m.",
"                                                    O 8 :X`._.Z.l.u.d.u.j.z.z.g...n < > < > ; ; : : ; = ; > ; < 6 6 < 2 6 < < < ",
"                                              . . O #.7X_.Z.C.0.9.u.y.y.l.y.&.B = . .   .   .                     .   .         ",
"                                              O N ^.).k.Z.C.j.T u.u.y.d.l.@.v O .                                               ",
"                                        . O + 4.>Xl.V.D.N.z.d.E d.c.d.y.b.( +                                                   ",
"                                        , ] ,X3XH.K.}.Z.k.j.z.d.z.p.l.h.&.J .                                                   ",
"                                  . O v ~.f.j.N.B.[.D.w.u.q.z.j.z.p.p.g.X.N .                                                   ",
"                                O - ~.4XC.A.Z.Z.a.V.a.p.j.d.d.d.z.a.p.m.o.~ #                                                   ",
"                              . y <X/.C.D.D.D.e.a.p.g.y.g.s.E E u.j.N.x.V >.l a u & $ & a % % X                                 ",
"                              # ] ;.y.0.k.V.V.Z.z.y.@.X.*.f.E s.u.u.V.l.o.<X.         o X o o u k z p o                         ",
"                              t _ Y u.l.u.d.p.C.u.+.o.V L R R s.l.a.V.p.$.dX.                       X & p u X X X               ",
"                            @  .L 0.C.k.s.*.y.g.E P L K J L I E Z.D.D.(.1X5..                               o $ & k k k & o     ",
"                          . | J ^.(._.x.R V A f.~.I I _ _ $.I s.K.I.D.`.( .                                           o $ & <.k ",
"                          3 $.v.%.O.X.X.B b K A L %.K V ..-.K U Z.W.D.3X<                                                     o ",
"                        .  .$.;.L B U P U +././.T W *.K I $._ L z.K.{.).:                                                       ",
"                        l d J #.J V p.[.OX[.e.].[.B.C.E B ` ( X.8.C.(.O.O                                                       ",
"                      # } t y m x s.OXoX.XoXU.t. XG.].0.B N _ O.l.j.x.;.O                                                       ",
"                    . [ d 9 8 V k.+XoX*X.X.XXXU.r.B.D.C.o.v X.f.k.k.h.~.O                                                       ",
"                    4 [ M n L c.OXoXXX*X*X*X.XoXe.N.S.Z.v.x P g.N.Z.j.^.+                                                       ",
"                  * l Q x s.].+XXX.X*X*XT.Q.Q.oXD.w.S.Z.b.A c b.].S.N.3X<                                                       ",
"                % f 9 N h.[.oX=X*X*X*X.XT.T..X XA.8.e.A.m.Y c g.].S.B.m.=.. .                                                   ",
"                a 9 v i.0X&X=X*X*X.X*X.XY.Y.Y.I.k.q.N.C.x.y.D n.C.e.D.c.2XO .                                                   ",
"              u p 7 @.0X-X=X=X!.*X.X.XY.P.U.P.G.j.9.u.l.+.+.S h.Z.N.7.c.v.1 .                                                   ",
"              z u | 5X-X-X!.*X*X.X.XY.P.t.r.I.I.c.R S o.Y o.x v.w.A.8.9.b.:X.                                                   ",
"              o $ M wX;X;X!.*X*X.X.X X XB.r.G.D.9.L N ` %.%.v K `.c.j.9.n.,XO                                                   ",
"                  N wX;X-X=X!.Q..XY.r.A.p.8.N.z.L N 8 Q _ _ Q 6 I n.z.z.q.v.O                                                   ",
"                . ) wX;X!.=X*XQ.Q.Y.r.8.q.d.j.d.L ] ! 8 ) ` Q M V E a._.c.v.+                                                   ",
"                  / wX-X=X*X*X*X.X.X Xw.k._._.(.Y $.1X#.H ! N %.*.y.J.m.m.&.3                                                   ",
"                  - iX-X=X*X*X*X.XY.OX'.s.R W U X.&.s.^.N M ..v.).g.@.P l.v.3                                                   ",
"                  + 5X#X=X=X*X*XY.U.d.x 8 7 t 7 8 $.`.5XI m 1X&.g.o.n N +.,X+                                                   ",
"                  O R 0XoX=X*X.XP.].O.y r e e r t K '.A.n.f.E h.^...7 0 -.,.O                                                   ",
"                  . Z 3X$X*X*X.X X_.K 7 e e & e r H z.[.Z.C.x.s.L G t h ^ 3..                                                   ",
"                  . - ^.{.+X+X+XG.0.B t r e e r 9 J _.r.[.w.).L ) 9 s f g                                                       ",
"                  . O =.L R E c.c.A K ! t r r 7 b +.a.r.F.C.%.n ^ t r f .                                                       ",
"                      [ y G m U (.E P #.H J H J ~.(.k.Z.].s.v 9 d } a                                                           ",
"                      @ } ! H V (._.E E /./././.n.W c.c.b.V y g 1.i                                                             ",
"                        # | J -.(.F R /.q.].c.7.f.D T n.O.J [ @ :.u                                                             ",
"                          0 ..*.s.c m K f.k.c.F o.L S @.&...s   k i                                                             ",
"                    o     w -.f.).U n 8 V /./.E L ( L ;.%.<X#   $ X                                                             ",
"                          O ~.h._.).m y v L s.s.*.L S -.=.8X.                                                                   ",
"                          . ,.f.0./...H H ..s.d.R O.O.%.=.6X.                                                                   ",
"                            w >.X.R %...O.I E d./.b.X.) >.| .                                                                   ",
"                              , =.%.I R g.s.E /.+.X.#.>.3.}                                                                     ",
"                              . 0 ,.O.g.z.z.h.+.C | 3 . [ <.                                                                    ",
"                                . q #.b.`.m.Y ..~ g .   z z                                                                     ",
"                                  O ~ ` &.O.X.` | O     k &                                                                     ",
"                                    4 Q _ ( ` | }       o                                                                       ",
"                                    3 ^ #.4.| | {                                                                               ",
"                                    w ^ 3.4.1.s {                                                                               ",
"                                    # h 4.' :.d <.                                                                              ",
"                                    # d 3.~ 1.j { .                                                                             ",
"                                    # h 3.7 . p l                                                                               ",
"                                    @ [ 3.7 . o %                                                                               ",
"                                    o f 3.7 .                                                                                   ",
"                                      j 6.4                                                                                     ",
"                                      5 5.5                                                                                     ",
"                                        2.5                                                                                     ",
"                                        u X                                                                                     ",
"                                                                                                                                "
};
