/* XPM */
static char *_0f75fc3ffd4439fd22d698f7098e89ciqU4pX0rNTugQOxz[] = {
/* columns rows colors chars-per-pixel */
"64 64 202 2 ",
"   c #060606",
".  c #0A0503",
"X  c #0B0906",
"o  c #060709",
"O  c #06090B",
"+  c #0C0C0B",
"@  c #090708",
"#  c #110D0B",
"$  c #130A03",
"%  c #0F110F",
"&  c #13110E",
"*  c #1D130A",
"=  c #0E0E11",
"-  c #110F11",
";  c #0E1113",
":  c #0E161A",
">  c #141414",
",  c #191513",
"<  c #1B1916",
"1  c #13151A",
"2  c #16191A",
"3  c #1B1B1B",
"4  c #161817",
"5  c #211E1C",
"6  c #241C17",
"7  c #1E201F",
"8  c #23211E",
"9  c #28231D",
"0  c #1C1E21",
"q  c #1A1D25",
"w  c #1E2122",
"e  c #1F2428",
"r  c #232323",
"t  c #292625",
"y  c #2B2925",
"u  c #242629",
"i  c #252A2B",
"p  c #2B2C2B",
"a  c #27272A",
"s  c #322E2B",
"d  c #332B26",
"f  c #35322E",
"g  c #3B332D",
"h  c #2C2E31",
"j  c #242632",
"k  c #342E31",
"l  c #2E3232",
"z  c #343333",
"x  c #3A3533",
"c  c #3C3A36",
"v  c #3C3C3C",
"b  c #37373A",
"n  c #2E302F",
"m  c #423D3B",
"M  c #443C36",
"N  c #3E403F",
"B  c #44413C",
"V  c #4B443D",
"C  c #55483F",
"Z  c #383C41",
"A  c #413F42",
"S  c #3D4144",
"D  c #434243",
"F  c #4A4644",
"G  c #4E4945",
"H  c #4B4749",
"J  c #4B4B4B",
"K  c #44474B",
"L  c #534B45",
"P  c #524C4B",
"I  c #584F48",
"U  c #56514C",
"Y  c #5C544D",
"T  c #4C4E52",
"R  c #464A52",
"E  c #534F50",
"W  c #4D5155",
"Q  c #545353",
"!  c #5A5454",
"~  c #5C5B5C",
"^  c #59585A",
"/  c #635B53",
"(  c #625D5C",
")  c #64615E",
"_  c #6C645D",
"`  c #5D5E61",
"'  c #625F61",
"]  c #5D6167",
"[  c #646364",
"{  c #6B6463",
"}  c #69676A",
"|  c #6D6B6B",
" . c #666769",
".. c #726964",
"X. c #726C6C",
"o. c #716765",
"O. c #7B726B",
"+. c #74716E",
"@. c #6E6C72",
"#. c #736E71",
"$. c #6D7074",
"%. c #747274",
"&. c #7A7574",
"*. c #747579",
"=. c #7A767A",
"-. c #77797E",
";. c #7D7B7B",
":. c #7B7976",
">. c #6D736F",
",. c #837A74",
"<. c #827C7D",
"1. c #8A7F7A",
"2. c #817670",
"3. c #80756F",
"4. c #7D817B",
"5. c #88827D",
"6. c #90867D",
"7. c #7E7D82",
"8. c #817E82",
"9. c #7E8183",
"0. c #858283",
"q. c #8A8585",
"w. c #8B8986",
"e. c #8A8689",
"r. c #8D8B8C",
"t. c #848589",
"y. c #958B85",
"u. c #928D8D",
"i. c #978C89",
"p. c #93918E",
"a. c #9A908E",
"s. c #8C8C91",
"d. c #928E91",
"f. c #998F91",
"g. c #8E9293",
"h. c #959394",
"j. c #9A9494",
"k. c #96949A",
"l. c #9B969A",
"z. c #9D9B9C",
"x. c #999995",
"c. c #A19694",
"v. c #A19C9D",
"b. c #AA9F9C",
"n. c #A29996",
"m. c #A2A09E",
"M. c #ACA29D",
"N. c #9D9CA4",
"B. c #A29EA2",
"V. c #9DA0A5",
"C. c #A4A2A3",
"Z. c #AAA5A6",
"A. c #ABA9A6",
"S. c #A5A4A9",
"D. c #ABA6A9",
"F. c #ACAAAB",
"G. c #A5A8AD",
"H. c #B3AAA6",
"J. c #B2ADAD",
"K. c #B3AAAA",
"L. c #B3B1AF",
"P. c #B9B1AF",
"I. c #AEADB4",
"U. c #B3AEB1",
"Y. c #B8AFB2",
"T. c #B5B2B3",
"R. c #BAB4B5",
"E. c #BAB9B6",
"W. c #BAB6B9",
"Q. c #BDBABB",
"!. c #B5B5B9",
"~. c #AEB0BD",
"^. c #C2BCBE",
"/. c #C1B6B6",
"(. c #C5C0BF",
"). c #D4C6BD",
"_. c #BEBCC1",
"`. c #C2BEC1",
"'. c #C9BFC0",
"]. c #C5C2C3",
"[. c #CAC5C6",
"{. c #CBC7C9",
"}. c #CDCACB",
"|. c #C8C6C9",
" X c #D1CDCE",
".X c #D1C9C7",
"XX c #D8D1CF",
"oX c #CDCCD0",
"OX c #D3CED1",
"+X c #D5D2D3",
"@X c #D9D5D6",
"#X c #DAD7D9",
"$X c #DDD9DA",
"%X c #DDDADB",
"&X c #D9D7D8",
"*X c #E1DDDE",
"=X c #E3E1DF",
"-X c #DEDCE1",
";X c #E2DFE0",
":X c #E5E2E3",
">X c #E9E5E6",
",X c #E9E5E8",
/* pixels */
"e.I.].A.A.m.D.h.z.q.A.q.[ r.p.h.v.x.B.k.k.s.k.N.~.F.^.U.].E.(.].}.:X+X#X{.@X@X{.|.oX%X=X+X$X=X=X$X&X+X[.C.h.T.T.E.oX}.Q.J J r.+X",
"P E L.m.z.m.F.0.J.A.z.^ w.x.z.x.<.( #.c 8.k.k.S.D.W.[.B.W.Q.|.&X;X:X=X:XOX}.^. X%X%X&X:X:X%X*X X].R.D.F.m.F.F.E.{.}. X+X-X:Xz.>X",
"K.v z.x.z.m.C.Q.T.F.C.C.A.C.g.l.^ t P + ' A Z G.`.W.U.[.;X=.%X%.,X,X{.Q.E.+X*X*X].:X:X,X:X%X XR.D.D.S.B.C.E.}.}.`.E.Q.h.E.(.}.:X",
"Z.u.x.z.m.v.B.F.A.Q.G.m.F.m.z.r.J + G X &.k j _.l.Z.U.R.OX%X<.J.:X%XL.[.v.].^.$X:X,X>X=X=XoX[.C.B.B.B.S.z.A.^.[.|.z.(.+X+X=X=X>X",
"A.D.d.B.J.B.z.S.T.F.z.C.C.v.j.G f + F X ( q j V.`.k.k. XOX*X{.*X:X:Xq.`.Y.oX#X;X&X>X>X:X*XOX'.W.U.f.N.B.B.K.J.|.F.T.T. X:X:X,X>X",
"C.J.U.^.T.J.N.C.z.z.m.z.h.i.a.M c # y % A q Z N.`.{.Y. X#X#X*X#X}.{.+X}.].$X;X*X+X=X=X=X+X`.T.A.l.B.B.F.P.P.].Q.C.}.`.Z.$X+X,X*X",
"W.D.U.F.D.C.C.N.g.4.0.l.d.K.P._ < , + + k + $.s.~.oX_.'.#X+X'.OX$X&X*X'.*X@X[.}.`.E.x.m.h.j.j.z.B.B.v.K.].]. X[.`.$X+X[.+X>X>X:X",
"Z.F.Y.F.v.q.z.C.g.g.F.S.K.H.q.y.6 X @ @ O o k.} 1 ~.~..X;X;X;X#X}.=X,X*X#X^.v.8.w.w.x.J u.p.H.F.Y.W.W.^.+X+X[.0.].@X=X>X:X>X,X,X",
"D.Y.N.z.m.z.p.5.-.g.e.F.B.0.v.A.M $   @ O 1 8.q R N.W.`.OXOXOX;X=X$X=X X.XU.v.;.%.;.r.4.0.x.E.E.U.U.W.XX>X>X*X>X:X@X$X>X>X$X>X^.",
"I.l.l.8.m.x.m.p.h.x.B.F.E.I.[..X/ . . - o - u = 8.`.`.`.OXOXoX{.&X.XE.A.B.l.8.' &.j.z.0.l.T.!.F.^.K.OX X#X@X+X*X>X].:X>X>X:X>X*X",
"Z.#.U.U.E._.E.S.e.S.].!.T.E. X X/ . @ @ @ O O Z `.oX/.W.Y.K.e.*.%.:.p.5.8.f.8.l.;.G.k.T.}.+X}. XOX*X*X@X>X{.+X X>X[.:X>X,X>X>X*X",
"K.Y._.Q.Q.E.I.C.V.F.T.A.T.(. XE.L . @   @ = q 7.`.`.Z.v.<.%.` ~ { ) | 5.d.K.e.r.#.V.C.Q. X@XOX+X#X].*X*X>X>X*X+X*X^.;X:X>X:X>X>X",
"B.l.B.D.J.A.q.Q.u.v.v.A.+X+X%X*X3.$ . @ O 1 ^ _.`./.B.o.{ ^ H x k x 8 m } 8.N.!.z.D.Z.L.[.=X*X,X>X>X;X*X>X=X*X>X+XU.;X>X>X>X>X*X",
"B.I.B.I.F.q.K | e.C.U.F.].%X*XXXY .     ; Z N.Y._.D._ M B P U A A m 8 0 A 8.s.A z.J.J.K.^.E.h.,X#X>XOX@X*X=X:X$X$Xv.OX[.,X>X#Xb.",
"&.N.B.I.F.k.x } ( S.W.}..XXX*X^.M X o = q T Y.K.b.i.! A U c x A v m b r q $.s.! %.R.v.z.C.].{.:X@X>X*X*X>X>X:X+X:X|.u.*X>X>X{.].",
"B.k.N.k.C.z.t j.;.A.Z.'. X).XXb.6 X o - T l.f.K.H.1.I d 3 # O > @ > 3 - q Z 7.@.Z.D.B.C.L.E.}.%X X*X*X+X#X*X+X@X=X+X X>X#X*X>X>X",
"D.k.C.%.z.| b r.T.k.].{. X[.).C # X ; Z 8.B.X.Z.c.3.M & # + O +     o O O u $.' f.D.l.B.!.E.S.,X#X+X X[.$XQ. X].%XQ.].#X*X#X=X>X",
"=.B.z.v.h.[ t J.z.z.[.}..X/.,.* # = b  .T e.q.b.6./ 6 X + > > + +   o   O q ' } 8.d.B.N.C.C.B.Q.;X*XQ./.e.@X:X X*X%X*XR.#X>X*X*X",
"*.d.N.N.h.h.[ 4.Z.F.W.^..Xj.d $ + 1 ' B.=.Z.| u.y.M , + % + ; + - O + @ O = K *.=.8.7.8.U.W.D.!.'. X X%XR.:X>X>X>X>X}.+X@X+X*X=X",
"S.C.U.d.h.r.r.0.<.^.U.'.6.C # # - S  .D.| X.~ ..V M & & & + + + + + @ o O = h [ 8.8.a | D.W.!.F.^.D.[.$X*X>X=X+X,X>X].}. X*X*X#X",
"G.C.x.g.0.0.~ 0.f.W.Y.H.g 6 + O j 7.A f.,.d.8.,./ d $ + + % & + + +   X @ + a + A =.- #.j.P r.F.`.[. X@XOX*X>X:X X}.`.:X*X^.>X>X",
"m.z.x.0.[ t.r. .Z.Z.l.n./ * + = K 8.5 ' P 8.I c.C 9 + + % + + + X O O X o + k   k 8.= [ | B 0.(.OX*X{.#XW.*X>X:X=X XE.R.^.{.*X>X",
"[ ) p.D [ [ 9.t.<.C.6.1.# X + - ` } =.8.#.u.,.1.g & # + + + % + + & + + + + y & a -.= Q y J r.K v.U.R.R.P.}.*X=X:X].L.[.Q.E.=X=X",
"Q z { p. .~ J q.0.U Y M .   + q @.7.X.E ' ,.y.2.d & + O + > + + + + + + + @ t Z 1 [ + S + J t ^ l.K.j.B.F.E.J.+X:X].+.[.F.#X X*X",
"N r.9.w.| r.X.p.:.) L 9 # + = z #.r.e.l...5.a.,.B * X % + + + + % + + + + + 1 -.+ *.5 # + b 7 9.i.f.8.N.J.E.F./.S.W.h.+XV.}.:X:X",
"^ G.p.{ ) r ) p.[ / x * + = 1 T s.X.X.i.M.n.P.5.g * + + +   + + ; + + + + > :  .= + # . O O W g.%.<.e.U.^.z.R.^.Q.T.;.F.A.].:X>X",
">.t.x.)  .[ %. .X.! x < - ; q ` 8.P / e.p.x.M.O.d & % + + O + + + + = + + ; : S r X X X   2 >.w.0.r.r.s.R.E.=.W.}.[.Z.F.0.C.:X>X",
"p.m.0.p J ~ 9.8.H X.d < - - 3 A } #.( &..._ 6.I 9 # + % + + + + & + O + + O ; e 8 X X O O u  .4.-.t.u.B.R.J.d.R.{.}.E.m.Q.F.*X:X",
">.p.X.r z Q #.=.D y s 6 > 3 3 a b H v ~ ! B ) B 7 X % % + + O X + + + + = = = > & + O X O i  .4.6.w.! j.X.F.8.W.^.x.A.t.T.R.|.=X",
"~ A.<.{ k m E 8.{ 5 F x 5 3 , 3 8 3 z m N c V f < % + % + O O + + + = + + + = = % + O X O i ^ >.x.A.c.j.n.J.B.<.[.L.%.[.T.m.E.;.",
"r.V.X.{ P F <.@.b H ,.o.! A t r 8 8 r k c f x n < & + + + + + + + # = = + = + + % + + O O w J 4.p.m.l.l.r.e.q.x.E.&XQ. XA.*X>X}.",
"0.z.i.q.{ 8.8.#.8.#.8.8.8.o.! M z s p p n z f y < % X % + + + + + + + > + - # + + + % + O 2 S %.z.L.h.F.F.C.x.Q.+X|.F.%.[.+X>X>X",
"x.m.&.0.! l.e.C.r.9.F.I.F.B.e.{ ( P F d c g f y < X + + , + + + + % + + @ + + & > % % & + 3 S ~ >.k.z.h.^ z.S.C.}.S.j.F.;.r.:X>X",
"4.q.X.t.=.r.e.s.-.k.g.k.N.d.e.e.y.X._ ~ G c f y < + + O + # O + O + & + + + + + ; + % O O 4 b ` t._.l.F.%.E.+XC.u.^.+X$XQ.h.*X+X",
"A.! %.D.`.z.!.Q.T.].F.].'.W.'.W.R.Z.j.O.+.I L s 5 + + + O + + O + + + @   + O O & > + O + > h R k._.C.%Xh.q.E.:X:X]. Xr.~ 5.+X:X",
"m.f 3 x J b m.(.x.%.U.^.W.R.U.Y.Y.K.u.5.,._ V g 3 & + + + + + + + + + X   + @ X % > + + O + 2 R 7.k.k.].S.;.R.[.:X:X}.Z._.Q.$X%X",
"Z.:.B | t.~ F.|.r.[..X+X XR. X XOXv.c.,.i.,._ c < % + X X O X X   X @ @ X X X O % 3 3 & + > : b 7.V.T.{.r.Q.{ ^.>X*X}.0.}.}.&X$X",
"[.m.D ;.z.;.{ H.q.T.].[.j.D.OX X{.Y.U.v.c.6./ 8 , + O O   X O X X O X O O O O # > 7 3 , > > = r W s.9.G.%.t.[ [.*X XA.$X+X%.Q.%X",
"z.%.~ d.| e.W.Q.;.j.+XOXQ.`.[.:X;X#X XY.H.b...g r & X   @ X O     O @ @ O X O + 4 t 8 < = - > > i R $.k.| z.T.^.;X^.e. X+X+X*X}.",
"C.7.Q.I.I.Q.}.Z.B.8.&X;X X].+X#X;XOX*X'..XH.5.V y , X X + O X X + O @ @ X @ O X 3 , r 8 + +   > 2 h ] k.S.F.$X+Xv.*X;.T.|.F.[.@X",
"J [ r.T.^.R.U.^.|.[.Q.$XF.@X+X X{.XX X/././.y./ M 6 X X O + O X X X + + O O # O < z t p < > - > : : h 7.z.N.%X|.*X@X*XF.R.{.>X[.",
"H J | %.Z.D.Z.[.{.+X=X+X+X].(.Q.|.;X*X*X Xb.M.,.I 9 % O + O O   O + + +   X + > 3 N r f 6 > - > : : e  .I.`.:Xl.*X+X}.:X].@X$X=X",
"B.:.<.e.C.T.C.Q.}.E.[.].T.+X+X}.[.[.{.{..X.XM.y.o.d & > # + + + & O O + o O = + t n B B 9 5 & > + 4 : W G.oX$X_.@X>X+X#X*X*X>X>X",
"e.J.#.( m.L.j.].}.}.[.E.[.`.Q.E.Y.!.Y.v.Z.B.a.1.2.g < > > O # + > > > > + + 1 3 n n D ) c s < & % ; w S V._.-X$X*X*X'.:X'.$X:X>X",
"F -.q.p ~ ;.F.+X].`.E.[.E.Q.+XOX`.{.Y.u.C.r.f.8.3.M d 9 4 + = = 3 > - > + + 2 w l N B >.B L 8 8 , ; e ] F._.:X}.:X,X:XW.F.*X:X*X",
"Q *.|.[ m.;.}.@X`.E.]. X[.].|.|.W.`.`.~.R.K.b.a.1.( M y 8 & - 1 r 3 4 > + > 3 i p z Q | +.O.B M t t S 9.I.G.].!.}.}.}.Z.d.F.@X$X",
"z ` {.l.Q.( S. X}.[.}.[.E.[.'.`.`.}.OXoXY.'.K.b.y.O.! M s < > 3 3 3 > > > 4 3 t p l Q ~ 5.5.X.O.) ^ 7.N.!.N.F.h.T.].|.`.oX`.[.].",
"w U v.F.r.h.4.*X+X=X%XL.w.[.@XOXW.`.'.Y.OX'./.c.y.1.o.G f 5 > r r 3 < < 4 > r u l l J ) +.:.j.j.j.X.I._._._.Q._.`.].{.$X{.&X+Xz.",
">.{ ].| S.%.J.>XR.R.Q.}.F.(.@X@XT.%X@XOXOX/.'.b.c.1...I c y 7 r 8 3 3 4 3 3 7 r 7 p N T ( q.f.j.v.B.`.`.].E.T.E.|.{.[. X}.oX|.t.",
"^  .C.Q h.;.^.*X$X+XOX#XW.T.].+X|.{.#X X.XK./.c.y.2./ P c p 8 4 3 3 3 3 3 4 7 8 y n f ~ :.q.v.F.R.Q.{.|.].}.}.[.+X+X%X*XA.J.&XT.",
"J J b c  .%.0.+X(.+XQ.OX]. X+X|. X*X#X{.}.'.'.K.i.2./ V f y 8 7 3 3 3 4 4 ; 7 7 i p b J H &.;.j.D.K.Y.Y.Q.G.z.].].Q.A.|.L.(.+X&X",
"h.>.3 v r p v F.+.p.].@XOX[.@X*X;X;X$X*X.X.X'.M.y.O.! M f r 8 3 2 < 4 > % 4 4 t e p f N ^ | 5.z.~.W.oX].|.|.}.OX|.|.F.t.E.[.{.+X",
"S.D r + v N  .^.|.C.}.&X+X[.+X$X#X&X|.B././.f.f.6._ L c p r 3 < > 4 4 < 4 4 4 7 7 r i z N Q %.t.c.`.|.}.|.OX{.OX].T.h.E.|.|.+X+X",
"+XL.W.K +   w [ L.|.&X:X+X'.|.$XOX*X#X'..X/.Y.<.&./ V 8 7 w 4 % 4 < , 4 < 7 7 7 r r 8 l z D Q %.B.`.W.W.{.OX XOX|.].+X+X].T.+X+X",
"+X&XQ.0.h.Q z D z.J.(.%XA.[.%X&XOX-XOX#X{.Z.b.O...I M y 8 7 3 4 4 > 4 > < 4 7 7 7 7 i p i N Q *.7.OX#X-X].&X{.[.}.%X=X=X=X}.(.z.",
"}.h.+X#X%X%X`.].+XL.&X&Xx. XA.F.`.'.*XY.^.Y.i.,._ B f 8 7 , , > > > > > > & 7 7 7 7 e r i z D ] 7._.-X-X;X&X%X*X:X:X=X@X=X{.$X=X",
"oXg.E.%X*X%X}.7.&X+X$X+X+X+X X|.*X*X#Xr.'./.b.3.U g y 3 > > > > > > > < > 4 4 3 3 r r w t i b J -.~.+X,X*X:X:X:X[.:X:X>X>X:X>X>X",
"&X].].].>.$X|.a OX&X+X+X+X%X%X$X#X-XOX X'.K.i._ B f 9 4 > & > - > > > > 4 4 3 3 3 0 3 r r t h b K g.oX,X%X;X;X>X:X:X>X:X>X>X:X:X",
"%X%X:Xq.r.*X%XF.`.&X%XoX=X&XF.Q.OXOX'.K.Y.b.2.Y g 9 3 > 4 > > > > > > 1 , 1 3 3 3 3 3 3 w r u h K *.!.-X,X#X&X:X:X:X>X*X:X:X*X*X",
"$X:X%X4.l.U.E.F.A.+X%XQ.&XT.G {.OX{.OX.X^.K.,.I f 7 4 4 , , > > - > = 4 1 4 4 > 4 3 3 3 4 0 w t z S k.oX&X#X&X-X=X=X=X=X}.:X:X:X",
":X:Xg.%.[.z.>.%X&X+X}.x.-XoX(.$X#X@X+X.X^.M.{ M 9 3 4 > < > > > > > > > , & 1 & 4 > 4 < 4 3 3 7 i Z *.Q.-X-X-X;X%X%X:X=X%X:X:X:X",
"|.}.(.S.%XQ ;.=X=X*X] *.F. X|.oX X@X XY.M.6.L g 9 3 > < > > > > > - & > > > > > > > 3 > 3 4 4 4 q h W g.|.OXOX+X+X$X@X&X+X%X%X%X",
"E.[.].Q.T.n w.+XQ.+X>.C.%X&X+X&XOX@X'.^.a.O.L t < > > > > # + + + + @ + O - - & & , > > > > , > 1 w Z $.!.{.}.}.+X{.}.+X+X+X$X@X",
"Q z ` D N 2 J N N ` y ) V.[ S 4.| J k d g M # X @ O #   O O   @ @ @           o O + O > > + % % ; : j W 7.k.;.!.F.Q.F.Q.+X+X@X+X"
};
