/* XPM */
static char *a1c72438868f4250cad198e430335baeO4tyuwvYhkoUBEDU[] = {
/* columns rows colors chars-per-pixel */
"64 64 209 2 ",
"   c #040303",
".  c #0A0404",
"X  c #050904",
"o  c #0A0906",
"O  c #060509",
"+  c #0A060A",
"@  c #03090A",
"#  c #0B0A0B",
"$  c #130303",
"%  c #1B0303",
"&  c #120906",
"*  c #11050A",
"=  c #120C0C",
"-  c #1C0D0D",
";  c #1F0609",
":  c #0B100E",
">  c #13110E",
",  c #0D0D11",
"<  c #120E12",
"1  c #131313",
"2  c #1A1313",
"3  c #1B1917",
"4  c #15151B",
"5  c #1B1B1C",
"6  c #181717",
"7  c #0F1015",
"8  c #240304",
"9  c #2B0B0B",
"0  c #370E11",
"q  c #221C1D",
"w  c #251818",
"e  c #351114",
"r  c #3E1819",
"t  c #290F10",
"y  c #1E211E",
"u  c #23221E",
"i  c #1D1C22",
"p  c #171522",
"a  c #2A1C23",
"s  c #1F2926",
"d  c #232324",
"f  c #2B2424",
"g  c #26262B",
"h  c #29262A",
"j  c #2C2B2D",
"k  c #282A27",
"l  c #322B2B",
"z  c #36282A",
"x  c #35302F",
"c  c #2D2D33",
"v  c #2A2933",
"b  c #322E32",
"n  c #343334",
"m  c #3A3434",
"M  c #383935",
"N  c #35353A",
"B  c #3B3B3C",
"V  c #3C343D",
"C  c #293730",
"Z  c #431A1D",
"A  c #461D21",
"S  c #413C3D",
"D  c #4A383B",
"F  c #3E403D",
"G  c #42403F",
"H  c #3C3D43",
"J  c #3E3D48",
"K  c #373640",
"L  c #413E44",
"P  c #413E49",
"I  c #3F4141",
"U  c #424244",
"Y  c #4B4343",
"T  c #494A45",
"R  c #45454A",
"E  c #49464D",
"W  c #4B4A4C",
"Q  c #47484C",
"!  c #534748",
"~  c #514C4B",
"^  c #584949",
"/  c #4D4D53",
"(  c #524E51",
")  c #4F5352",
"_  c #535354",
"`  c #5B5555",
"'  c #5B5956",
"]  c #54545B",
"[  c #59565C",
"{  c #5C5B5C",
"}  c #57585B",
"|  c #625B5B",
" . c #67595E",
".. c #64605D",
"X. c #5C5C63",
"o. c #5C5C67",
"O. c #605C66",
"+. c #5E6168",
"@. c #636365",
"#. c #6A6565",
"$. c #65646A",
"%. c #69666A",
"&. c #6B6B6D",
"*. c #68686A",
"=. c #726D6D",
"-. c #75686D",
";. c #6C6B73",
":. c #6F6D78",
">. c #706F75",
",. c #6C7474",
"<. c #737274",
"1. c #75747B",
"2. c #79767D",
"3. c #77797D",
"4. c #7A7A7D",
"5. c #7B7776",
"6. c #70736C",
"7. c #827C7D",
"8. c #857979",
"9. c #86827F",
"0. c #767480",
"q. c #7D7C83",
"w. c #7F7F89",
"e. c #827E84",
"r. c #8C7D80",
"t. c #7E8586",
"y. c #828184",
"u. c #8A8485",
"i. c #84848B",
"p. c #8B868A",
"a. c #87888D",
"s. c #8B8A8D",
"d. c #878A83",
"f. c #928E8D",
"g. c #998D8D",
"h. c #95918E",
"j. c #868591",
"k. c #8C8C93",
"l. c #8E8E99",
"z. c #898892",
"x. c #908E95",
"c. c #908E99",
"v. c #998F90",
"b. c #8D949A",
"n. c #949395",
"m. c #94949B",
"M. c #99969C",
"N. c #9C9A9C",
"B. c #9A9697",
"V. c #A29A9A",
"C. c #94A09E",
"Z. c #9696A1",
"A. c #9B9BA3",
"S. c #9E9EA8",
"D. c #A09EA6",
"F. c #A69DA9",
"G. c #9CA1A7",
"H. c #A3A2A4",
"J. c #A4A4AB",
"K. c #AAA7AC",
"L. c #AAAAAE",
"P. c #ABA7A5",
"I. c #B3AAA9",
"U. c #A7A5B1",
"Y. c #ACACB4",
"T. c #AEAEB9",
"R. c #B0AFB4",
"E. c #B3B1B5",
"W. c #B3B2BB",
"Q. c #B9B5BB",
"!. c #B9BABD",
"~. c #BCB4B6",
"^. c #AFB4B8",
"/. c #C0BCBE",
"(. c #C1B4B4",
"). c #B7B7C1",
"_. c #BCBBC4",
"`. c #BFBDC9",
"'. c #BAB7C2",
"]. c #C4BFC9",
"[. c #C5C2C5",
"{. c #C4C4CC",
"}. c #CAC6CB",
"|. c #CDCACC",
" X c #CED0CF",
".X c #C6C5D1",
"XX c #CCCCD4",
"oX c #CECED8",
"OX c #C7C7D3",
"+X c #D1CED5",
"@X c #CFD1D6",
"#X c #D2D1D7",
"$X c #D4D3DB",
"%X c #D9D5DD",
"&X c #DCDADD",
"*X c #D7D8DA",
"=X c #D0C2C2",
"-X c #E7DBDC",
";X c #DBDBE4",
":X c #D9D9E4",
">X c #E1DFE6",
",X c #E5DEE6",
"<X c #E4E3EB",
"1X c #E8E5E9",
"2X c #ECEBF3",
"3X c #EAE9F5",
"4X c #F5F4FD",
"5X c #FCFCFF",
"6X c #F1EEF3",
/* pixels */
"      O   O               X           O         #   o         o   O     #   # X @       1     O     X           X               ",
"    O     o                 O   O   O     o #     O     O           >     #     O O O O O         O                         O   ",
"    O X O               X O # #                           u b 3 6 O X       ,       O     O #     O                         O X ",
"    X X                 X   # #       1 #     O # b F b X n F M W <.' X.n #     ,     X   , O   X           X                   ",
"        O     o                 >           5 n M @.6.B 4.n.' n k / 1._ n.s.{ } O   O O       ,         O   X X         X       ",
"  X o   O O                         # O   1 u 5 > U 1.M y.y.<._ j <.y.5 W } s.L.<.M 1   , 4               O O o                 ",
"  .   O X       X       X X     #       # F X.' +.@.&.6.9.M.^.,.i.H.v i   } <.s.N.N.a.6       ,           O O X                 ",
"        X X           o   O O       # n @.n.N.n.Q _ O W c ' @.B 1.N , i E y.$._ _ y.a.O # O X         X O O o O               X ",
"X                   X               k <.@.Q.G.{ } h g ( _ q.;.[ @.} c i q.m.N.B [ U     U W   #             #           X       ",
"                #         # #   X O   d 5.' I T 4 B N $.>.i.<.q.k.'.A.q.J.M._.L.>.y.g   M 4.b   # #   O       #                 ",
"                      #         >       M 5 I , X.&.<.i.k.i.X.c.;._.oX{.F.i.m.+XJ.P B O   O y         #                         ",
"          X                 # >   > #   W T > +.;.q.!.k.'.$.:.Z.c.Y.m.A.A.R.m.5XK.< d ,.N.n.U F 6         # #                   ",
"                          X   # B 6   X O 1 6 R { J.n.A.S.1.o.Z.o.l.].'.).3X2Xz.J.j &._ m.J.N.L.k                     O         ",
"                      X #   1 c >     X     1 d e.a.J.q.{.X.g j.j.<XT.:.OX].6Xi.} # } { T &.' } }     # > O     X   O         # ",
"                #   #   j y _ B...1 d #     5 m.R.y.Y._.4Xi.X.T.%XZ.p v U.c.].A._ 4 c k G j _ 9.N.k       #                   # ",
"X           X   #     # @.Q { d.M @.M ) 5 1 k.[.#X:.4 2.!.k.{.q.;.K p :.A.:X>Xz.O.g 5 B 3 6 ' M U # 1 #                       # ",
"      O     O O       4 *.@.~ Q *.*.@.6.I 4 T.`.4Xj.p +.I } ' y ;.X.I A.>X3XW.;.^.) F ) u u d.6.n _ # X #                       ",
"  O   O O O O O   1   + b j 1 d 5.{ n.4.4   z.OXoXY.4 Q Y.C X W Y.N t.$.J.$XoXm.i.i.) U ' T M k M > #                           ",
"O   O   O             #       1 u 1 k ]   p j.U.OX`.Z.c m.c T 5 I I a.3._.^.4X3Xs.q.j 4 C u k 5 >   #       X                   ",
"  O   O   O   O 1   i B     #   X   1 @ @ v T.T.4Xl.`.;.I c 1 s d @ v } ,.`.<X4XA.+.4.) F G 6     O                             ",
"  O O   . O     O   V #.h # O   s 5 s 4 K A.oX3X).`.b.} &.W W &.;.a.*.a.;.T.oX3X{.G.i./ / i d @ 5 k 6 O O                       ",
"O .   O O         # _ 1./ h b &.1.) N v Z.oX3X;XT.$.;.S.I G.a.B.H 4.*.c n o.Z.XX^.:X'.0.k.q.t.d q.U _ #                         ",
"  O O     . .     O E %.i i ( K.1X*XQ ;.;.`.$XXX+.K H I 4 y W @ i g p ) X.3.`.;.0.J t.T.$X$XW.@Xs.@.6.>                         ",
"O   O           =   ~ 4.  N j.+X2X&XX.0.) <X:X>XoXOX).).k.] @XQ m.q.a.L.;.Z.i.k.b.m.] j.m.b.OX$X_ s.&.                          ",
"  O           . .   B J.c.%X1X,X2X2X+.4.I `.S.U.3X4Xb.b.$Xs oXg _.,.$.q.c w.j..XZ.E.J.).t.{.oXY.4.<.W X                         ",
"      . X   . X o   5 f.OX4X].T.1X1Xa.,.] ] v v o.`.Y.).*X3.c R _..X;XA.;.1.Q ;.A.,.S.o.t.;.A.;.U *.1 1                         ",
"        .     .   o a $.'.3XoX].G.;.R q.:.+.;.A.A.:X<X:X5X$XN l.$X:X_.t.*.+.c ) Q } { c K o.l.X.B &.  #                         ",
"    .               > H F.3X].Z./ ] $.1.;.:.T.:X<X<X<Xa.m.$Xq.OX).] t.:.b.A.T J.4.,.+.+.Y.0.{.;.@.4.                            ",
"            X   o     g A.>X].S.Z.W.).0.A.J $.T.oX3X5Xi.v T.0.$XJ / w./ ^.K.#X X3.L.n.&X).i.4.X.@.<.o         X                 ",
"O O O       X o   X   g M.`.U.`..X.X0.v 0.A.oX<X$X:X3X;Xo.m.G.U.o.Z.l.o.#XXXH.F I F k k 5 y y N F ..                            ",
"    O     . . o   O   d q.F.0.0.l.A.Z.w.c p H o.3.:.;.).l.l.OXm.T..X] ;.) @ X   o   O         ' _ { d                           ",
"O       . . $ & w &   1 R c.j.o.4 , O 7 ,         I v Q q.)._.{.oXZ.] N     X o 6 o X     # X M s.*.%.  O                       ",
"      . $ $ 8 r 9 & X C ,.2.[ O #     #   o >       G n <.3.E ] 0.j./ , O O X # k           o h 1.4.5.  4   O O O               ",
"        $ 8 0 Z 8 . X s t.c.K a   #     3 u   X o   1 c 4 a 1.$.n c g ,       # k     o o   o m N.].q.  +   +   O               ",
"    . . % e Z Z $ & X C G.C.z.V     X   6 k   X   6     5 H a.<.}       , O   # n =     .   o ( Q.,X%.O O O O     O             ",
"  o . $ 8 r Z 9 . & >   ) J.q.K +   o   : n O #       k / i.i.E t.i , #     X 5 { n =   &     Y K.A.a . O     + O             X ",
"    . % e Z e % %   o     K.A./ O O     d R   O #   # K X.k.a.i.N.1.k d   1   # q #     = . # #.M.E     +     #   .             ",
"    $ e A A 9 $ $ .   . b D.).b.i O   # n / 1 O   X   j } m.'.$X_.M.} B N #     .       .   o =.K.( + # O O .         . . X     ",
"  . % 0 Z Z t $   . *   2.W.+.OXJ i       7   O , < c $.<.A.U.:.i.5.k.*.X.    # .   o   o o d u.~.e.h a +   +   O . X   O   o   ",
"  . % 9 e e 8 . * . . #.w.:Xb.:XG.J.R   , O O X.o.q.k.k.).l.g p j { B.H.>.%.3 O o   . . o . - | V.M.h l <   + o     X X O   O   ",
"  o % 8 8 % ; o   . .  .F.%Xb.G.U.T.A.1.;.3.m.;.] J.T.%XXXb , O   j / n.L.R.~.` h o q . & q q u.<.#.x _ .   O # O . o           ",
"  o % % % 8 & . o     a  .].G.z.1.Y.:.U.k.1.P O / m.q.>X;.    O   O %.{ E.|.f.~ 3 + m m f L #.5.P.u ' m   #   o     O           ",
". & % $ $ t -       + + z x.+XE.!.k.J.E.U.T.J :.q.m.y.%Xg O O   ,   %.M./.,X%Xu.p.m S #.l f -.` h.2 ~ u     #   O   O     X   O ",
". & = $ . 2 = . . + * . v b K.k.i._.k.J.>XW.k.).k.W.%XL.O # O #     d N.[.n.~.}.,X#.m | j & Y S m m u - o   =   .         X O   ",
". = 1 o o , # # + . .   k 6 ` { N i   O p 1.m.2.k.{.$X_   #   X   < O m }.[ E -X#.m o * * . & o . u 2 o . &   o X o             ",
". * # @   O + o . . #   , B S 7.1.:.0.X.i , 0.$.Z.+Xs.4   #   2       < #.<.7.v.  - .   - 2 . = & o o o o .   X X O O     X   O ",
"$ . O @ O X   + + * #     y f | N...;.:.E   i.o.m.{.k.k     o T < <   ! a p.-X`   2 o . = o   & > o   & .   =     .         O   ",
"* .   @ @ O   . .     X :   >     O     ,   E e.m.D.n.n   X   T = #   S h S p.f a l - + * . = . . o & o   = X   X   O         O ",
".         X     O .   X X X   o #   # #     K ] 0.0.e.v     3 =.q > & u D ` 8.r D w w $ & o o X o o O X o     X     O     X X   ",
"          o   O O   o           .       O , o.T.'.c./ e.o   3 | 3 . & .  .(.I.D A $ . . o o o o # o X O O       o         O     ",
"  X         X O o O X   O         X   O O O J '.,X,XO.e.U l #.9.~ l G D P.(.-X#.` u 2 & > o     # # o O   O                   X ",
"      O   X X O O O               X     O 7 v '.:X4X+XO.| s.8.h.P.~ A  .V.-X-X` ^ w = $ =     o # o X X   X     O   #           ",
"          O O   o O . X             #   1 R / %X'.3X,X~.k.=XN.f.I.M ~ u 8.(.I.^ G t . . &   X o #     X             X X         ",
"O     O X O     X O   O #           >   < J E F.U.+X%X].~.2XV.h.h.' I.D (.O.g.8.! t - $ =     o # #           X     X O         ",
"              o X   O X   X         O   O , h R z.Q.e.e.p.e.p.S T ! ' G v.^ ^ =.w . o   # X o o # # X           o   O           ",
"        X           O   o O O     #   # O   V N -.] L ( z b =.o > & u u ! 7.! r.w   o . # o o o # O             O       O     o ",
"                                      #     c O.{ E E =.l ( f m l u m f m f #.u * o * o   . X X #           o       X           ",
"              X                 o     O     4 H x.n.f.Q.=.H.' ` 8.S =.| #.~ f . . o o .   o O o     O               X O         ",
"O                           X   #   X #       < a } | [.s.6Xp.=.I.G f.N.~ L = .       o O # # O O O     X                       ",
"O     o                         #       X       O   o x =.!.B.` /.&.<.V.3 2 . #       # # o   o   X                 O         o ",
"X         O   X     O   O X X             o .     #   & O Y Y ~ 7.@.j S < o   o     X O O # o   O X             O           O   ",
"X           O X   X X     O   o #                       < # 1 O q = .   # O       X     O       o X             X O         X O ",
"        O         o     X O   #       X           >   =   .   . .   #       <           X       #             X X           X   ",
"                            O         O o o         .   & . +     1   o     X   X       X     O                                 "
};
