/* XPM */
static char *_ef26cb353264d3483750afb4f5a73c5xYqgr553NtxHDrtv[] = {
/* columns rows colors chars-per-pixel */
"64 64 243 2 ",
"   c #070707",
".  c #0C0704",
"X  c #060906",
"o  c #0A0906",
"O  c #090708",
"+  c #070908",
"@  c #0A0A09",
"#  c #060709",
"$  c #130502",
"%  c #1B0300",
"&  c #130A04",
"*  c #1B0C04",
"=  c #120D0A",
"-  c #1A0D0B",
";  c #0E100E",
":  c #12110E",
">  c #1C120C",
",  c #191406",
"<  c #0B0E10",
"1  c #130F10",
"2  c #0E1113",
"3  c #151412",
"4  c #1B1512",
"5  c #1C1915",
"6  c #15191B",
"7  c #1B1C1B",
"8  c #161617",
"9  c #270706",
"0  c #350A04",
"q  c #23130C",
"w  c #241B0E",
"e  c #281609",
"r  c #391409",
"t  c #221613",
"y  c #231B14",
"u  c #221D1B",
"i  c #2A1E1C",
"p  c #291C16",
"a  c #361D16",
"s  c #2A0F10",
"d  c #1F201B",
"f  c #24221D",
"g  c #2B231D",
"h  c #262115",
"j  c #36261C",
"k  c #1C1F21",
"l  c #2B2523",
"z  c #2C2A24",
"x  c #2D2B2A",
"c  c #252726",
"v  c #332C25",
"b  c #3C2C23",
"n  c #332D2B",
"m  c #3A2827",
"M  c #35322D",
"N  c #3A332B",
"B  c #353327",
"V  c #2D3235",
"C  c #3B3533",
"Z  c #393938",
"A  c #2D302B",
"S  c #202022",
"D  c #440B02",
"F  c #51140C",
"G  c #512C1C",
"H  c #432A27",
"J  c #572827",
"K  c #47362B",
"L  c #58362C",
"P  c #433B34",
"I  c #473A35",
"U  c #543C34",
"Y  c #68332D",
"T  c #7B3A3C",
"R  c #6D312D",
"E  c #6F2719",
"W  c #4B443C",
"Q  c #49453C",
"!  c #58453B",
"~  c #55402B",
"^  c #64483A",
"/  c #794537",
"(  c #3B3F42",
")  c #4B3F43",
"_  c #494846",
"`  c #544B44",
"'  c #584A45",
"]  c #5A544B",
"[  c #585655",
"{  c #4E5052",
"}  c #684B44",
"|  c #66574B",
" . c #73574A",
".. c #685B58",
"X. c #765453",
"o. c #6A6358",
"O. c #76655B",
"+. c #7D765C",
"@. c #5D5D61",
"#. c #696767",
"$. c #756A65",
"%. c #7A736D",
"&. c #787777",
"*. c #6E7375",
"=. c #5A6265",
"-. c #9A3728",
";. c #8E3736",
":. c #963936",
">. c #AA3828",
",. c #AE3C31",
"<. c #894539",
"1. c #9B453A",
"2. c #AB4539",
"3. c #BB4433",
"4. c #B64A39",
"5. c #BB513E",
"6. c #B4412F",
"7. c #C24C3B",
"8. c #CA4D38",
"9. c #C7533B",
"0. c #D3543D",
"q. c #DB573D",
"w. c #E3593E",
"e. c #943843",
"r. c #90514B",
"t. c #BA5547",
"y. c #B45955",
"u. c #AB5049",
"i. c #876659",
"p. c #80614C",
"a. c #AF6557",
"s. c #8A756A",
"d. c #847978",
"f. c #93726B",
"g. c #B67473",
"h. c #C75846",
"j. c #D75945",
"k. c #C94D44",
"l. c #E45C43",
"z. c #E65D46",
"x. c #CC634B",
"c. c #D8644D",
"v. c #C96958",
"b. c #D66957",
"n. c #D8735B",
"m. c #CB725D",
"M. c #E66247",
"N. c #E96B54",
"B. c #F0745C",
"V. c #D77A65",
"C. c #CF7771",
"Z. c #E37867",
"A. c #8A8279",
"S. c #978579",
"D. c #928671",
"F. c #AD8676",
"G. c #D68B76",
"H. c #E88B77",
"J. c #7C7C81",
"K. c #9E7E81",
"L. c #7D8285",
"P. c #878787",
"I. c #978C89",
"U. c #9C9289",
"Y. c #9A9B9A",
"T. c #8E9093",
"R. c #A79589",
"E. c #B7998C",
"W. c #A89A96",
"Q. c #B39F97",
"!. c #B58984",
"~. c #B8A599",
"^. c #A5A29D",
"/. c #999CA1",
"(. c #9EA2A3",
"). c #A9A6A4",
"_. c #B7AAA6",
"`. c #B9B2AD",
"'. c #B8B8B8",
"]. c #ADAEB2",
"[. c #A29BA2",
"{. c #D2978B",
"}. c #EC9388",
"|. c #D7A798",
" X c #CFA495",
".X c #EAA694",
"XX c #C8ACA4",
"oX c #C7B4A8",
"OX c #C7B9B6",
"+X c #D6BCB4",
"@X c #D7B3A9",
"#X c #F5BCB7",
"$X c #E9B1AC",
"%X c #D69FA2",
"&X c #D8C5B9",
"*X c #CCC2B9",
"=X c #E6C8BB",
"-X c #FFCCBE",
";X c #BDBFC1",
":X c #F3BACB",
">X c #D3BEC3",
",X c #BEC2C5",
"<X c #C7C6C7",
"1X c #D7CBC6",
"2X c #D9D2CB",
"3X c #CDD0D3",
"4X c #D8D7D7",
"5X c #C5CBD0",
"6X c #E6D5C9",
"7X c #FBD7C9",
"8X c #E8DCD6",
"9X c #FAD9D7",
"0X c #F6C9C9",
"qX c #EDE3DC",
"wX c #E3E1DF",
"eX c #F2E6DD",
"rX c #FDE5DB",
"tX c #F7E6D9",
"yX c #FFF0DF",
"uX c #DCDFE0",
"iX c #DCE2E5",
"pX c #E5E5E4",
"aX c #EAE6E4",
"sX c #ECE9E6",
"dX c #E4E6E9",
"fX c #E9E7E8",
"gX c #E4EAED",
"hX c #ECEDEC",
"jX c #F3EAE4",
"kX c #F2EDEB",
"lX c #FAE8E5",
"zX c #F3F1ED",
"xX c #FCF3ED",
"cX c #FEF1E5",
"vX c #ECEEF0",
"bX c #F5EEF0",
"nX c #EDF1F3",
"mX c #F2F2F2",
"MX c #FCF5F3",
"NX c #F9F8F9",
"BX c #FAF7F8",
"VX c #EFF1EE",
"CX c #FFDDE5",
/* pixels */
"@ o = c B . o : f o o : O.| o + . @   + +   @ : @ @ 5 o X @ X   @ @ O O + @   X ; ; o o o o + + @ @ + + X d Q h o X + X o ; ; @ ",
"5 = X ; u & @ @ = o + ; +.o.= o X X @ + + + @ = @ + X X X @ @   @   O @ + X O X o c : = o o @ + @ + + + X f ] h o o ; ; X X X @ ",
"@ o o o @ : @ 7 @ + + o ] | = = X @ + + + + + @ @ + @ @ @ X @ @ @ X X @ + + @ X , Q = . o + ; o @ @ + + d B ] h & X X X + + @ @ ",
"o o + o : = o . + + + o B ] @ + + + @ + + + X X + @ @ @ + + + @ 3 X X o + + @ X @ B @ X ; + = + + X @ + d B ! w o X X X + @ ; : ",
"@ + @ @ ; @ X @ X X o o B Q , + + X + + X ; 3 X X + @ @ @   @ @ 5 o X X + + + X o : X . @ X @ @ @ + + + @ c ` h & X @ . X 7 z : ",
"X ; ; : 5 > @ X + o o @ v Q @ X + X + + X ; P = + + @ + + + # @ 3 o o X + + + @ o @ X @ X @ X @ X + + + X f Q w @ o @ o @ f : o ",
"= 8 l B Q j . @ + + @ @ B Q & o + + X X ; X l o + X ; X + + + @ o o + + + @ X @ X @ @ @ @ @ @ @ X X X . # 8 Q h y h u 5 : : @ @ ",
"8 z ] I.| w & @ @ X X @ z ..3 o + + X X ; ; @ X X X + + + + + @ X o + + + + + @ o 3 @ @ o @ @ 4 @ X @ @ + ; N j Q #.] P g , 4 = ",
"d _ _.`.K p > @ @ X @ @ > z 4 @ + @     + + 3 @ + # + + + X + + + + + + + + @ @ @ = @ @ @ @ : = O + @ @ + 8 Q y @ [ ).U.] j y @ ",
"d [ 4X*XK $ & = : @ @ @ = 5 : =   + @ @ + + @ + + # + + + ; + + + o X X + + = 8 X X + @ o X @ o @ @ @ @ o > Q h @ x Y.2XW.! h * ",
"6 { 4X2X .% . X @ X = 3 5 f f u X @ @ O @ O + + + + # # + + + X X @ X X @ + @ @ + + + + X @ @ @ @ X X @ o : W g @ 8 L.2X6XS.K q ",
"2 V <XqXR.e $ X @ X X @ 3 4 : o .   @ @ O + + + @ + + + + + + + o o @ X @ @ @ @ + X + + X X @   X X X ; o : B u @ : *.3XeX&X .j ",
"; d T.dX6X ., & . @ O O @ X X @ @ @   X + + X + + ; @ + + + + + @   3 X @ 8 @ @ + @ # # X X + + @ + X X o 5 N y X 2 *.4XaXeXD.G ",
"+ 6 =.uXtX*XK & X O @ @ X + @ X   3 @ @ + + X + + + X X + + + + @ @ 7 @ @ X @ @ X + # # X X + + O @ 4 ` Q y v y @ 6 T.iXpX8XE.L ",
"; 3 ( 5XaXeX@XH $ . @ @ + + X @ O @ @ @ + X + + + + + + + + 2 X X + + + @   @ @ + # # < 2 6 d d c ` _.oXb > v 3 # ( ,XgX2X6XoX^ ",
"X 2 Z `.2XqXyX6X..y o X X + . . X X . X @ + + + + + X @ X X ; X X X X 3 @ . # < k _ =.K.(.'.,X,X4XsXtX~.b , g 5 S /.qXaX1X6X=X/ ",
"; 2 B ).'.wXeXjXqX'.S.` f 5 , @ . o X o X @ @ O   +   @ + + X X X ; X # # < V P.;XuXhXhXzXhXhXhXgXVXjX2XO.N $.%.'.sXrXOX`.8X6X .",
"+ 3 P ^.W.wXVXVXkXjXhXsX8X2X].I.o.Q B 4 o . . . @ X @   + + X + X c + # k J.iXnXmXmXVXVXnXmXmXhXhXhXkXkXqX2XqXhXVXwXW.| 1XjX=Xi.",
"; d ` ^.| ).wXsXhXhXhXkXhXhXVXVXsXsXwX`.d.K & . .   X X @ + + @ X c 2 *.3XnXmXNXmXmXmXmXmXhXhXmXVXVXVXjXsXeXjX2XU.' ) ].sXjX=Xp.",
"+ d #._.' j _ #.P.[.'.<X3XpXaXsXsXhXzXkXjX8XW.v & o . . + + + @ X A ,XvXNXmXmXmXmXmXmXmXmXmXkXhXsXdXwX2X`.D.U.! , N '.dXhXtX&X^ ",
"< A P.2Xs.h g C [ #.$.o.[ ) #.@.#.*.T.'.*XjXMX8X$.g $ . + < # < =.4XNXNXMXkX2XOX].).).Y.Y.I.P.#.` A 5 : o h A.] %.4XgXVXsXjXE.G ",
"2 V (.gX8XQ.K P &.' > O = s i i l x I ` $.I.4XzXcXoXI . X # 6 L.gXzXxXwXA.' C u 4 = 1 @ @ @   . . o & > c l J.].iXgXVXVXjXeXD.j ",
"2 V ].gXsXqX~.j W.dX8X_.I n l i l n Z [ M C [ <XMXxXjXR.n x '.mXxXtXR.w . O = 1 = = # + @ @ 8 x ] O.`.Q.N h L.uXvXvXVXsXyX&X^ e ",
"2 V ].gXhXjX7XS.N %._.8XjX2XT.$.) i M I C C n [ 5XNXMXxXzXmXMXMX&X| * & & 8 8 8 3 8 7 { *.I.].4X8X~.s.j y M '.iXgXVXVXsXtXF.b * ",
"< c /.gXvXsXjX6X| a H Q.fXbXbXvXaX2Xd.y i n m l _ ;XBXBXMXMXcX~.4 o . o . @ @ 3 L.3XpXVXVXcX4XjXR.q & 5 d *.4XgXVXgXVXsX&X^ w & ",
"< k J.iXhXfXaXqXE.~ L L X.OXCXnXbXMXlXjXoX..` i 8 c Y.;X<X'.O.9 & o o B _ &.4XmXNXNXVXcXcX2XU I q $ > M A ).gXsXhXhXVXeXF.b * o ",
"< 2 ( ,XhXhXaXjX=Xs.U } R J K.>XbXbXkX6XlXbX9XXXs.q $ 4 k < $ . B U.S.1XNXNXNXNXNXzX6XtXyXs.* $ $ $ P g { 5XhXvXhXsXyX=X| e o o ",
"# < V T.dXhXfXsXtX@X^ r.R F F i.0XbXjXOX1X9XrX$XrX9XXXf.i.I.+XCXcX9XJ 8XBXNXNXmXzXcXF.F./ e % - = n P : P.iXvXsXhXsXtXQ.j & o o ",
"# # 8 [ 3XsXhXhXjXtXE./ u.2.b.y.K.CXlX>X$XG.C.e.C.#XC.$XCX#X} }.}.y.R 0XMXNXBXBXcXtX~ 0 9 9 s s m ' t u '.gXgXVXsXkX=X .e . o X ",
"X < 8 { ^.<XhXhXsXeX7Xg.<.v.B.j.e.g.CXCX-Xa.>.,.u.,.4.,.t.k.t.k.k.k.e.:XBXBXBXxXyX XE 0 0 9 - a ! i = @.4XgXvXgXVXeXE.G * o o o ",
"X < 3 _ %.` '.hXsXtX|.1.u.Z.N.0.7.,.C.CX7XV.,.j.j.0.0.8.8.j.j.z.z.k.e.:XBXBXBXxX7Xg.<.D s K.g.| } t 6 /.iXvXhXhXeX8X+.e b Q 5 & ",
"X # ; M o.e _ '.eX6Xy.2.b.b.0.q.q.7.e.y.C.v.k.l.l.w.l.w.w.l.z.z.z.j.e.:XMXBXMXxXE.|.a.F } +XO.H K 1 _ 5XVXgXsXhXeX*X! e ! | g @ ",
"# + @ l ! * @ n Q.{.y.n.n.0.q.q.z.z.j.h.t.k.j.N.M.M.w.w.w.w.l.M.z.k.e.:XBXBXlX7XY %Xa.Y i.X.s t 5 1 P.iXvXhXdXsXjX*X| ! s.K , o ",
"# + ; f Q , . = H f.{.H.0.q.q.q.c.9.6.>.>.,.4.9.j.M.M.l.l.w.l.w.z.k.;.9XbXbX0Xr.J !.$X@XL s p u 1 C 5XvXvXsXhXfXsXaX&X&Xi.p & o ",
"@ < @ f ` * X @ C  X.XB.9.B.M.c.4.-.>.6.3.,.3.4.7.c.N.M.l.w.M.M.w.j.,.CXlX0Xr.;.T %X{.e e l l 8 2 (.iXnXhXaXfXfXsXjXtXR.b * o = ",
"@ # ; M O.w . = @.+X.Xx.5.j.q.3.-.2.t.v.t.v.m.6.u.h.c.N.N.M.M.M.z.z.k.u.r.e.%XbX|.XX .r N n u = =.uXvXvXfXaXfXfXjXeX~.U > . O @ ",
"+ + 2 M O.K X 8 P.=XH.9.9.j.h.-.>.t.m.R Y +X9Xr.D <.j.0.j.N.B.N.j.8.t.2.R @XlX{.j o.D.~ I t < Z 5XvXvXfXfXfXfXkXeX+X' q &     + ",
"+ + @ l ! j o l W.#Xn.8.9.h.2.-.4.v.E 9 - P.8X6Xa D 2.h.k.4.,.3.,.>.>.;.g.:XX.. 3 $.S.~ > @ x '.gXvXfXdXfXaXsXjX6Xi.p = O @ O + ",
"+ + @ 5 P , @ z ~.&Xb.8.k.t.-.-.t.r.0 % > 1 Z A.U.E.<.;.b.x.k.j.c.N.k.;.X.H 8 C $.S.D.w o Z ;XgXvXhXfXfXfXsXjX6Xs.j & . + O + O ",
"+ + + 3 h & : b XX.Xx.8.t.t.-.:.{.#X} % t l u = , U R.F ;.}.}.}.}.y.u.J a I %.`.W.o.+.& M 5XvXnXfXdXfXfXhXjXtXR.b * .     +     ",
"X X X : y @ : C oX.Xx.3.9.4.2.u.:X0X+XO.9 t l x t 1 - 9 s Y R R Y J H ) d._.OXU.I %.U.d.4XnXhXfXaXsXdXhXsXeX*X .q o . + + + + O ",
"+ = @ @ 4 o = P @XG.9.6.5.5.5.x.@XjX6X6X| * t n I V n u s s s s H ) K.'.OXQ.X.i - &.8XaXhXhXfXaXgXsXVXkXtXXXD.^ , o . X + + O + ",
"+ + @ ; u O 1 P  XG.9.6.9.9.m.<.} 3XdXjX&X! % 5 ) @.@.#.@.} [ @.&.[.[.W.$.m 4 Z Y.pXkXhXhXfXdXfXVXsXVXeXoX! } ' , X X @ X   + + ",
"+ + + X @ . 1 K G.G.5.6.9.n.m.F s #.iXVXlX+X! $ 8 ) #.J.[.].[.K.I.K...H t l T.4XvXmXkXaXfXfXsXsXsXzXeXoX^ e W W 4 o o @ @ @ + + ",
"+ + @ @ u @ 3 U {.G.6.5.h.n.u.9 X 6 T.gXxXjX6XO.* & S _ =.K.d.#.) m 1 S K.iXmXmXvXhXhXaXfXsXhXkXkXjX~.! w & ] | > . O O @ +   @ ",
"+ @ @ @ = X 1 U G.m.4.5.x.V.E % . < { 3XnXzXcX8XR.! > 1 k C ) I i c #.;XgXvXmXkXhXfXhXaXsXhXkXzXqX~.! w @ , A.O.y @ @     .     ",
"+ + @ @ O   8 ^ H.v.4.h.n.a.0 $ . + 6 J.vXmXzXjXkX4X_.U 1 u u 1 [ ,XvXnXnXmXvXvXfXaXhXhXhXhXjXeXR.K q o + ; %.o.4 . @ @ + +     ",
"+ @ O @ @   > X.G.9.4.h.H.<.9 @ . + < x ,XnXnXhXMXkXjX8XW.H x [.gXnXbXnXnXvXvXhXhXhXzXhXhXzXqXR.I q & X = ; W | 5 . +     + O + ",
"+ X @ X X o u f.G.8.5.n.m.F $ , ; X + 2 #.iXnXnXvXvXmXkXjX1X].vXmXmXmXnXmXnXhXhXsXVXzXzXjX6XD.H > & . X ; + B g : o @ X . O @ O ",
"@ 8 : o @ X i !.G.3.9.H.<.9 & ; + X + + c ].gXnXvXnXmXmXzXzXbXmXmXmXmXmXkXkXnXmXvXhXkXjXqXs.K q & @ 3 o + o o.Z @ o X o X X     ",
"3 c = . X & ~  Xx.9.n.v.0 $ . X X @ X @ 2 { iXnXvXvXVXVXVXbXbXbXnXmXmXkXnXhXhXhXhXzXeX*XO.j - o o @ @ @ o o { P : o X @ l @ O   ",
": y & . X , i..Xx.x.G.R % . @ @ # @ X + < 6 J.iXvXbXVXVXvXvXvXVXmXnXhXmXhXhXkXkXzXjXoX} y & . X @ X @ @ + o : d = o X o f u @ @ ",
"3 ` ^ e & b G.G.c.Z.u.0 $ @ = @ + + + + # < V ].vXvXVXvXkXvXvXVXhXVXVXvXhXhXkXjX6XR.! 4 o . o X o o = @ X @ : = @ O + . 8 : : X ",
"Z _.~.U - i.G.m.n.a.0 $ . @ O + + + + + @ # 6 { 4XvXvXvXVXhXkXvXhXVXbXbXkXkXjX*XO.b y & . @ : = + o @ X o X 4 3 .   + X = @ @ X ",
"{ `.*Xf.} {.G.C.a.r % $ @ @ + O @ # X @ # # @ k &.uXvXvXvXhXkXhXkXhXhXkXjX6XR.W y * , . o X @ @ X @ X + @ @ : = @ X + + @ 3 @ o ",
"Z d.~.XX+X|.G.<.r $ . @ @ O +   @ # @ @ # X # 2 ( L.4XvXvXhXhXhXhXkXjX4X).O.b , @ f v & X X : 3 @ X + + @ @ z f X . X @ X @ @ . ",
"l _ _ O.O.U a 9 $ $ X @ @ . + + @     + + + # 7 M l #.,XgXsXhXVXjX2XW...v 4 & o 3 M Q & . X X = = o + + X ; f d X X + + @ 3 X X ",
"v ' u t s % . . @ @ X @ O @ + @ 3 @ X + + + # 3 : @ k ( *.T.Y.Y.%.` v q * X o d d ] W * o o o @ + o + + X = B h = o +   . @ @ . ",
"N ' - $ . . @ @ ; @ @ @ X X + + @ @ @ @ +   + @ = @ ; ; d d c Q i - = . o X ; Q d _ o., o X X @ + X + + X o B f o X X . X @ @ @ ",
"B o.u $ . @ X @ X X X @ @ X + + + + @ @ + X + @ ; o + + X + X 8 O . X X X ; Q ` 5 B D., o X X @ @ X + : 4 o g d o X o @ @ X X @ ",
"B o.5 . O @ = 3 3 @ @ ; + + X + + + @ @   @ @ @ X + X X + ; + = o + + X X z ] B : A D., X + + @ X X @ o 3 o = 4 @   + + @ X + + ",
"B o.i $ @ @ = 3 X X @ @ + + + + + + +   + + @   X + o X + o o = o X ; X X ] Q , @ d A.w . + @ + X + o o o @ = @ X @ + + X + + + ",
"g ..p $ . + @ @ @ X @ @ + + + + @ + + + + + O @ @ X @ X + + @ @ @ + = + d M g , + A s.w o X # @ + + @ @ @ @ @ @ @ X + X + + @   ",
"B %.a $ . + O O X @ @ @ + + + + + + + + # # O     @ X @ + + @ + + + @ + 8 M B X ; ] U.e o X # + + X @ + @ @ @ @ + O X + @ + + O "
};
