/* XPM */
static char *_0e700b570814a6c8421d622d410a219kefkjgMN80XqQtEo[] = {
/* columns rows colors chars-per-pixel */
"64 64 212 2 ",
"   c gray5",
".  c #0E0E0E",
"X  c gray6",
"o  c #101010",
"O  c #111111",
"+  c gray7",
"@  c #131313",
"#  c gray8",
"$  c #151515",
"%  c #161616",
"&  c gray9",
"*  c #181818",
"=  c #191919",
"-  c gray10",
";  c #1B1B1B",
":  c gray11",
">  c #1D1D1D",
",  c #1E1E1E",
"<  c gray12",
"1  c #202020",
"2  c gray13",
"3  c #222222",
"4  c #232323",
"5  c gray14",
"6  c #252525",
"7  c gray15",
"8  c #272727",
"9  c #282828",
"0  c gray16",
"q  c #2A2A2A",
"w  c gray17",
"e  c #2C2C2C",
"r  c #2D2D2D",
"t  c gray18",
"y  c #2F2F2F",
"u  c gray19",
"i  c #313131",
"p  c #323232",
"a  c gray20",
"s  c #343434",
"d  c #353535",
"f  c gray21",
"g  c #373737",
"h  c gray22",
"j  c #393939",
"k  c #3A3A3A",
"l  c gray23",
"z  c #3C3C3C",
"x  c gray24",
"c  c #3E3E3E",
"v  c #3F3F3F",
"b  c gray25",
"n  c #414141",
"m  c gray26",
"M  c #434343",
"N  c #444444",
"B  c gray27",
"V  c gray28",
"C  c #484848",
"Z  c #494949",
"A  c gray29",
"S  c #4B4B4B",
"D  c #4C4C4C",
"F  c gray30",
"G  c #4E4E4E",
"H  c gray31",
"J  c #505050",
"K  c #515151",
"L  c gray32",
"P  c #535353",
"I  c gray33",
"U  c #555555",
"Y  c #565656",
"T  c gray34",
"R  c #585858",
"E  c gray35",
"W  c #5A5A5A",
"Q  c #5B5B5B",
"!  c gray36",
"~  c #5D5D5D",
"^  c gray37",
"/  c #5F5F5F",
"(  c #606060",
")  c gray38",
"_  c #626262",
"`  c gray39",
"'  c #646464",
"]  c #656565",
"[  c gray40",
"{  c #676767",
"}  c #686868",
"|  c DimGray",
" . c #6A6A6A",
".. c gray42",
"X. c #6D6D6D",
"o. c gray43",
"O. c #6F6F6F",
"+. c #727272",
"@. c gray45",
"#. c #747474",
"$. c gray46",
"%. c #777777",
"&. c gray47",
"*. c #797979",
"=. c gray48",
"-. c #7B7B7B",
";. c gray49",
":. c gray50",
">. c #808080",
",. c #838383",
"<. c #848484",
"1. c gray52",
"2. c #868686",
"3. c gray53",
"4. c #888888",
"5. c #898989",
"6. c gray54",
"7. c #8B8B8B",
"8. c gray55",
"9. c #8E8E8E",
"0. c #909090",
"q. c gray57",
"w. c #929292",
"e. c #939393",
"r. c gray58",
"t. c #959595",
"y. c gray59",
"u. c #979797",
"i. c #989898",
"p. c gray60",
"a. c #9A9A9A",
"s. c #9B9B9B",
"d. c gray61",
"f. c #9D9D9D",
"g. c gray62",
"h. c #9F9F9F",
"j. c #A0A0A0",
"k. c gray63",
"l. c #A2A2A2",
"z. c gray64",
"x. c #A4A4A4",
"c. c #A5A5A5",
"v. c gray65",
"b. c #A7A7A7",
"n. c gray66",
"m. c #A9A9A9",
"M. c #AAAAAA",
"N. c gray67",
"B. c #ACACAC",
"V. c gray68",
"C. c #AEAEAE",
"Z. c #AFAFAF",
"A. c gray69",
"S. c #B1B1B1",
"D. c #B2B2B2",
"F. c gray70",
"G. c #B4B4B4",
"H. c gray71",
"J. c #B6B6B6",
"K. c #B7B7B7",
"L. c gray72",
"P. c #B9B9B9",
"I. c gray73",
"U. c #BBBBBB",
"Y. c #BCBCBC",
"T. c gray74",
"R. c gray",
"E. c gray75",
"W. c #C0C0C0",
"Q. c #C1C1C1",
"!. c gray76",
"~. c #C3C3C3",
"^. c gray77",
"/. c #C5C5C5",
"(. c #C6C6C6",
"). c gray78",
"_. c #C8C8C8",
"`. c gray79",
"'. c #CACACA",
"]. c #CBCBCB",
"[. c gray80",
"{. c #CDCDCD",
"}. c #CECECE",
"|. c gray81",
" X c #D0D0D0",
".X c gray82",
"XX c #D2D2D2",
"oX c LightGray",
"OX c gray83",
"+X c #D5D5D5",
"@X c gray84",
"#X c #D7D7D7",
"$X c #D8D8D8",
"%X c gray85",
"&X c #DADADA",
"*X c gray86",
"=X c gainsboro",
"-X c #DDDDDD",
";X c gray87",
":X c #DFDFDF",
">X c gray88",
",X c #E1E1E1",
"<X c #E2E2E2",
"1X c gray89",
"2X c #E4E4E4",
"3X c gray90",
"4X c #E6E6E6",
"5X c #E7E7E7",
"6X c gray91",
"7X c #E9E9E9",
"8X c #EAEAEA",
"9X c gray92",
/* pixels */
"7X7X7X7X7X7X5X7X7X7X7X7X7X7X5X7X5X7X5X7X7X5X7X7X5X7X5X5X5X7X7X7X7X7X7X7X7X7X7X5X7X7X7X7X5X5X7X5X7X7X7X7X5X7X7X7X7X5X7X7X7X5X7X5X",
"7X7X7X7X7X5X7X7X7X5X5X7X7X7X7X5X7X7X7X7X7X7X5X7X7X7X7X7X7X7X7X5X7X7X7X7X7X5X7X7X5X5X7X7X5X7X7X5X7X7X7X7X7X5X5X7X7X7X7X7X7X7X5X7X",
"7X7X7X7X7X7X7X7X7X5X7X5X7X5X5X7X7X5X7X7X7X7X7X5X5X7X7X7X7X7X7X7X(.oX7X5X5X5X7X7X5X7X5X5X7X7X7X7X7X7X7X7X7X7X7X7X7X7X7X7X7X7X5X7X",
"7X7X7X5X7X7X7X7X5X7X5X7X7X7X7X7X7X7X5X5X5X7X5X7X7X(.oX(.5X7X7X7X7X5XoX].].*X1X7X*X5X{.U.7X7X7X5X5X7X7X7X5X7X7X7X7X7X7X7X7X7X7X7X",
"7X5X7X5X7X7X7X7X7X7X7X7X5X5X7X5X7X7X5X7X5X7X7X7XU.9.e.W.5X7X7X{.f.].3.1XZ.@X].5X1X*XW.Z.r.oX{.-X7X5X7X7X5X7X7X5X7X5X5X7X5X5X7X5X",
"7X7X7X7X7X7X7X5X5X7X7X5X7X7X7X7X5X7X7X7X7X7X7X@X:.].E.oXf.W.n.n.r.oX5XW.%.oXF.7X5X1X(.(.C -X7X5X5X7X7X5X7X5X5X7X5X7X5X7X7X7X7X7X",
"7X5X7X7X7X7X5X7X7X7X5X7X5X7X7X7X7X7X7X7X-XoX1X{.1Xf.oXU.b.1X5XE.C Z.7Xr.J.(...@XoXoXe.=.a.3.J.7X7X7X7X7X7X7X7X7X5X7X5X7X5X7X7X5X",
"7X7X7X7X7X7X7X7X7X7X7X7X7X7X7X7X5X7X5X5X*X5XU.U.1XU.U.r.].1X].oXW.@X7XC {.Z.(.oX(.{ $ ~ 7X@X..W.5X5X5X7X5X7X7X7X7X5X7X7X7X7X7X7X",
"7X7X7X5X7X7X5X7X5X5X7X5X7X5X7X5X5X5X7X5XoX].5XoXW.oXY :.%.].].%.e.oX~ ` Y 5X-X7X` 4 p ].7X5X5Xe.` :.7X7X7X7X7X7X7X7X5X7X7X5X7X5X",
"5X7X7X7X7X5X7X7X5X7X7X7X5X7X7X5X5X5XoX5X{.oX7X1XoXoXm + ; %.` $ > m + > 0 n.5X*X+ X a.-X5X5X7X*Xn.(.1X7X7X7X7X5X7X5X7X7X5X7X5X7X",
"7X5X7X7X7X5X7X7X7X5X7X7X5X7X7X7X7X*X1X*Xn.U.7X5XoXJ.h X X + X + X X X X + + y 0 + + b.Z.5X1X].5XoX{.1X7X7X7X5X7X7X7X5X5X7X5X7X7X",
"7X7X7X5X7X7X5X7X7X7X7X7X7X5X7X7X5X5XE.f.{.{.(.3.Y K + + X X X X + X + + + + X X X ; W.6.*X5XU.W.+.5X7X5X7X7X7X7X7X7X7X5X5X7X7X5X",
"7X5X7X5X5X7X7X5X7X7X5X7X5X5X7X5XoXJ.E.7XW.W > $ + > + X + X X + X X X + X X X X X > ].k.oXa.b.].m 7X7X7X7X7X7X5X5X7X7X5X7X7X7X7X",
"5X7X5X7X7X5X7X5X5X7X7X7X7X5X7X(.b.k.b.5X7X*X(.D > + X X X + + X + + X + X X + X + %.{.f.@X*XZ.-XC -X*X5X7X7X5X7X7X5X7X7X5X7X7X7X",
"5X5X7X7X5X7X7X7X7X7X7X5X5X7X5XC ,.W.=.U.7X7XW.p + X X + X X X X X + + X X X X X 0 ].5XZ.5XU.b.W.6 F.1X5X7X5X7X7X7X7X7X5X7X7X5X7X",
"7X7X7X5X7X7X5X7X7X5X7X7X7X7Xb.6.W.a.a.+.3.` ; $ X X X X X X + + + + + X X X X + p f.Z.n.1XF.3.f.e.5X7X7X5X7X7X5X7X5X7X7X7X5X7X5X",
"7X5X7X5X7X7X7X7X7X7X7X7X7X7X5X7X5X5X@XU.W.n.` + X X X X X + + X + + + X X X + + X y D W.1Xk.k.6.*X5X7X7X7X5X7X5X7X7X7X7X7X7X7X5X",
"5X7X7X5X7X5X5X7X7X7X5X7X7X5X5X5X5X7X7X5X7X7Xk.0 + X + X X + X X X + X + $ X X X X + 4 b.{.F.5XJ.J.1X1X*X5X7X5X7X7X7X7X7X5X7X7X5X",
"7X7X5X7X7X7X7X7X7X5X7X5X7X-X-X*X1X-X-X5X5X7Xn.D X + X + X + + + + X X $ p X X + X X + W =.-X1XE.oX+.*X5X7X5X7X7X7X7X7X5X7X5X7X7X",
"5X7X7X7X7X7X5X7X5X7X7X7X7X7X7X@X@X5X5X5X5X5Xn.+.; + X X X + ; $ X X + + X X X X + + + + 6 c ....k.%.5X5X7X5X7X7X7X7X5X7X7X5X7X5X",
"7X7X7X7X5X7X5X7X7X5X7X7X7X7X7X@X].@X*X1X7X{.Z.p X + + X X X + + + + + X X X X X X X + X + + X $ ` -X7X7X7X5X7X7X7X7X5X7X7X7X7X7X",
"7X7X7X5X7X5X7X5X7X7X7X5X5X5X].*X5X5X*X-XJ.F.c ; X + + X X X X X X X + X X + X + $ + X X X + W r.@X7X7X7X5X7X7X5X5X7X7X7X7X7X7X7X",
"7X7X7X7X5X7X5X7X7X7X5X7X7XoX-X7X7X5X{.*XU.U...X + + X $ $ X X X X X X X X X + X X X X X X ~ 1X5X5X5X-X1X7X7X5X5X7X7X7X7X5X7X7X5X",
"5X7X7X7X7X7X7X7X7X7X7X5X1XoX{.1X7X5X1X7X(.f.; ; K Y > > m 4 X X X + ; X X X X X X + + + { Z.1X@X5X-XZ.W.7X7X7X7X7X5X7X5X7X7X5X7X",
"7X5X7X7X7X7X7X5X7X7X7X5X*X5X7X7X7X7X7X7X{.K + + Y 1Xr.$ Y @X..+ X X + X X X + + X + y U.5X7XF.E.7X7XoX1X7X7X7X7X7X5X5X7X7X7X7X7X",
"7X7X7X7X7X7X7X7X7X7X5X7X(.@X5X7X7X7X*X{.k.c X X 4 N f.b.3.6 + X + + X + X + X X D @X-X7X1X5X1X5X5X5X*X7X7X7X5X5X7X7X5X7X5X7X5X7X",
"5X7X7X7X7X7X7X7X7X7X7X7X5X@X7X5X{.-XU.E.C ; X X X + + $ + X + X X X + X X X + 4 N @X5X7X5X{.5X7X7X1XW.5X7X7X7X7X5X5X7X5X7X5X7X5X",
"7X5X7X7X7X5X7X7X7X7X5X7X5X5X5X(.1X1X].J.~ $ + + p 4 4 ; + + X X X X + X X X X + ` ].7X5X7X1XU.oX1X1Xb.7X5X5X5X7X7X7X5X7X5X7X7X7X",
"7X5X7X5X7X7X7X5X7X7X5X7X7X*X5X5X5X1X-X*X=.> + 6 ,.a.b.K $ + X + + X X X X X X + W e.7X7X7X7X7X7X-X@X3.-X5X7X7X5X7X5X7X7X7X5X7X5X",
"7X7X5X7X7X7X5X7X7X7X5X7X(.7X7X5X5XJ.1X5Xf + X m W.W.e.~ 6 X + + X X + X X X + X m r.7X7X7X5X5X@X@XE.r.5X7X7X7X7X7X7X5X7X7X5X7X7X",
"5X7X7X7X7X5X7X7X7X5X7X5X5X7X5X7X7XoX5X5X; X + K 1XoX..E.> + X X X X X + + + X + o.b.7X7X7X5XU.5X-XE.7X7X7X7X7X7X5X7X5X7X5X7X5X7X",
"7X5X7X7X5X7X7X5X7X7X5X7X5X7X7X5X1Xn.Z.{ + X +.K E.(.~ ].+ + X X X + + X X $ X + C r.5X5X5XoX5X5X@X5X7X7X5X7X7X7X5X7X5X7X7X5X7X7X",
"7X7X7X7X7X7X7X7X7X7X7X7X7X7X7X7XoXJ.(.6 + + { p oX-Xk.9.+ + X X + > X + X X + + ` 3.oXoXU.5X1XW.-XU.F.-X5X7X7X7X5X7X7X7X7X7X7X7X",
"7X7X7X9X7X5X7X7X7X7X7X9X7X7X5X5X7Xf.7Xh + + X + D *X~ + X + X X + + X + X + + + f r.F.E.5X*X@X7X7X1X7X7X7X7X7X7X7X5X7X5X5X7X7X7X",
"7X9X7X7X7X7X5X7X7X7X7X7X7X7X7X7X7X0 Z.N + + X X + X + X X X X X X X + + + X X + + E.7X5X5X7X7X5X{.5X7X7X7X7X5X7X5X7X5X7X5X7X7X7X",
"7X7X7X5X7X7X7X7X7X7X7X7X7X7X7Xa...` %.y X X + X + + + X X + X X + + X + X + X X + p F.*X5X5X5X*X-X5X7X7X5X7X5X7X7X7X7X7X7X7X7X7X",
"7X7X7X7X5X7X5X5X7X5X7X5X5X7X1X].-X7X{.U.X X + X $ + X 4 + + X $ $ X + X X X + X + + W k.5X5X7XW.5X7X7X5X7X5X5X7X7X7X7X7X7X7X7X5X",
"7X7X5X7X7X7X7X7X7X7X7X7X7X7X7X5X7X5X5X@Xy X + X X X X + X X X + + X + X + X + X X X 4 o.J.].U.1X-X-X7X7X7X7X7X7X7X7X5X5X7X5X5X7X",
"5X7X7X7X7X5X5X7X7X5X5X7X7X7X5X5X5X7X].W.c + X X X + X + X + X ; X X X + + X X + X X ` E.1X@X5X-XoX(.5X5X5X7X5X7X5X7X5X5X7X7X7X5X",
"7X5X7X7X7X7X7X7X7X7X7X7X7X5X7X5X7X7Xn.` c X X X X + X X + + + + + X + + X X + + + X W 5X7X7X7X7X7X*X-X7X7X7X7X5X7X7X7X5X7X7X7X7X",
"7X5X7X7X5X7X7X5X7X5X7X7X7X7X7X1XoX].*XoXn.; X X X + X X X X $ + $ X D + X X X X X X K oX7X5X1X@X5X5X@X].5X7X7X7X5X7X7X7X7X7X7X7X",
"7X7X7X7X7X5X7X7X7X5X7X5X5X7X7XoX-X7X1XJ.-X~ X X X + + + + + + X $ 4 ~ $ + + + + X X D -X7X7X-X5X7X7X5XU.5X7X5X7X7X5X7X7X5X7X7X7X",
"5X5X7X5X5X7X7X7X5X7X7X5X7X5X7X5X7X7X*X5Xr.Z.p + X X X X $ $ 6 y 6.3.1X+.k.f.o.$ f $ h W.7X5X-XoX7X5X5X5X7X7X5X7X5X7X5X5X5X5X5X7X",
"7X7X7X5X7X7X7X5X7X7X5X5X7X7X5X7X7X7X7X7X1X].9.+ X + + + + X p C N { n.r.J.~ e.c Y ; N -X7X5Xr.5X7X5X1X5X7X5X7X7X7X5X7X7X7X7X7X5X",
"7X7X7X5X5X7X7X7X5X7X7X5X5X7X7X7X7X5X7X7X7Xn.b.+ X X X X X X + Z.h b.1XF.].e.W.Y a.6 $ =.7X@Xa.7X7X7X5X7X7X7X7X7X7X5X5X7X7X7X7X5X",
"7X7X7X7X7X5X7X5X7X7X5X7X7X7X5X5X5X7X7X7X7Xb.> X X X X + X X y r.W 3.J.a.f.k.Z.p +.$ $ { *XW.b.oX5X5X7X5X7X7X5X7X7X7X7X7X5X7X7X7X",
"7X5X7X5X7X7X5X7X7X7X7X7X7X7X7X7X7X7X5X7X5XY + X X + + X + + 4 o.Y { 5X%.W.Z.].4 3.+ > ..1X5X5X1X{.7X7X7X7X5X7X5X7X5X5X7X7X7X7X5X",
"7X7X7X7X7X5X5X7X7X7X7X7X7X7X7X7X7X7X5X5Xn.0 X X X > 4 X + X + + 4 6 J.Y 9.f p + y X K oX7X5X5X5X7X5X@X7X7X7X5X7X5X7X7X7X5X7X7X7X",
"7X7X7X7X5X5X7X7X5X7X7X5X7X5X7X7X7X7X7XoXf.W + + + $ ; C X + 4 $ =.3.-Xe.@XK y + > $ K ].5X1X5X1X5X5X@X5X5X7X5X7X5X7X5X7X7X7X7X7X",
"7X7X7X5X7X7X5X7X7X5X5X7X7X5X7X7X7X5X*XZ.].n.h + X X + + ; X X > @Xn.7X3.oXr.6.X 6 ; N (.U.oX5X7X7X5X5X{.7X5X7X7X7X5X7X7X7X7X7X7X",
"7X7X7X7X7X5X5X7X7X5X7X7X7X5X5X7X7X7X7X7X7X-Xe.m + X + X + X + > F.F.7X(.@XU.J.+ + + 6.F.5X1X5X7X7X5X5X7X5X7X7X7X7X7X5X7X7X5X7X7X",
"7X7X7X7X7X5X7X7X5X7X5X7X7X7X7X5X7X7X7X7X7X7XU.h X ; X + X + X + ` a.U.C { %.C X X c oX(.1X5X5X7X7X7X7X5X7X7X5X5X7X5X5X7X5X7X5X7X",
"5X7X7X7X5X7X7X5X5X7X7X5X7X5X7X7X5X7X7X7X5X7X@Xf + p + X X X X X X X X 0 $ $ + ; + ~ J.5Xb.E.{.1X7X7X7X5X7X7X7X5X7X5X7X5X7X5X7X5X",
"7X5X5X7X7X7X5X7X7X5X7X7X7X7X7X7X7X7X7X5X7X7XoXy X + X + X + X X X X + 6 $ + + ; 6 e.F.1X5X(.E.oX1X7X5X5X7X7X7X5X5X5X7X7X7X7X5X7X",
"5X7X7X7X5X7X5X7X7X7X7X5X7X5X7X5X7X7X5X7X5X7XoXN h 4 + + X X X + + X + p + X X + p {.b.@X7X5X7X*X@X-X7X7X5X7X7X7X5X7X7X7X7X7X7X5X",
"7X5X7X5X7X5X7X5X5X7X5X5X7X7X7X7X7X7X7X5X7X5X5X*X{.a.~ $ X X + X + + X 6 $ + + X ~ ].3.U.7X5X7X5X7X@X7X7X7X7X7X7X7X5X5X7X7X7X5X7X",
"7X5X7X7X5X7X5X7X7X5X7X5X7X7X7X7X7X7X5X7X7X7X5X7X5XE.W.f.+ X X X X X X + X X X c k.-X*X*X7X7X7X5X7X7X7X7X7X5X7X7X7X7X7X7X7X7X7X7X",
"7X7X5X5X7X7X7X7X5X7X7X5X7X5X7X7X7X5X7X5X7X7X7X7X5X7XoX(.c + X + X X + X X + > 1X{.5X5X1X7X5X7X7X7X7X7X5X5X7X7X7X7X5X7X7X5X5X7X7X",
"5X7X5X7X5X7X7X5X7X7X5X5X7X5X7X7X7X7X7X5X5X5X7X5X7X7X5X@X6.+ X X + X X X X X { 5X(.5X7X-X5X7X5X5X7X5X5X7X7X7X5X5X7X5X7X7X7X5X7X7X",
"7X7X7X7X7X7X7X7X7X7X5X7X7X7X7X7X7X5X7X7X7X7X7X7X7X5X5X7X5Xo.` 0 m p 6 y 6 p 6.oX*X7X7X5X].5X7X7X7X7X7X5X7X5X7X5X5X7X5X7X7X7X7X5X",
"7X5X7X5X7X7X7X7X7X5X5X7X5X5X7X7X7X5X7X7X7X7X5X7X5X7X5X5X7X7X5XZ.oXb.a.{.E.oX(.oX7X7X7X7XU.7X5X7X7X5X7X7X5X7X5X7X7X5X7X7X5X7X5X7X",
"7X7X7X7X7X5X5X7X7X7X7X7X7X7X7X5X7X7X7X5X7X5X7X7X5X7X7X7X5X5X7X5X5X5X:.-X1X5X5X5X7X7X5X7X1X7X7X7X7X5X5X7X7X5X7X7X7X7X5X7X7X5X5X7X",
"7X5X5X7X7X7X7X5X7X5X7X7X7X5X7X7X7X7X5X7X7X5X7X7X7X7X7X7X5X7X7X7X7X5X5X5X7X7X7X7X7X7X5X7X5X7X7X7X7X7X7X7X5X7X7X7X7X7X5X5X7X7X7X5X",
"7X7X7X7X5X7X5X7X5X7X7X7X5X7X7X5X7X5X7X7X7X7X7X7X7X7X7X7X5X7X7X7X7X7X7X7X7X5X7X5X7X5X7X7X7X7X7X5X7X7X7X5X7X5X7X5X7X7X7X5X7X5X5X7X"
};
